<svg width="852" height="100" viewBox="0 0 852 100" fill="none" xmlns="http://www.w3.org/2000/svg">
<path fill-rule="evenodd" clip-rule="evenodd" d="M0.7378 0C2.40324 8.23286 5.37064 15.8929 9.64 22.98C16.64 34.6 26.23 43.7 38.41 50.28C50.73 56.72 64.59 59.94 79.99 59.94C93.43 59.94 105.54 57.56 116.32 52.8C127.1 48.04 136.06 41.18 143.2 32.22L116.74 8.28C107.22 19.76 95.67 25.5 82.09 25.5C74.11 25.5 66.97 23.75 60.67 20.25C54.51 16.75 49.68 11.85 46.18 5.55C45.2511 3.76955 44.4506 1.91955 43.7784 0H0.7378ZM149.223 0C149.242 11.2916 151.972 21.4016 157.413 30.33C163.013 39.29 170.713 46.29 180.513 51.33C190.313 56.37 201.303 58.89 213.483 58.89C225.803 58.89 236.863 56.37 246.663 51.33C256.463 46.29 264.093 39.29 269.553 30.33C274.993 21.4016 277.723 11.2916 277.743 0H237.423C237.402 8.48297 235.162 15.163 230.703 20.04C226.223 24.8 220.483 27.18 213.483 27.18C206.483 27.18 200.743 24.8 196.263 20.04C191.804 15.163 189.564 8.48297 189.543 0H149.223ZM296.226 0V57H336.126V0.509995C336.126 0.339128 336.127 0.16913 336.128 0H296.226ZM373.506 0V57H413.406V0.509995C413.406 0.339128 413.407 0.16913 413.408 0H373.506ZM450.576 0V57H490.476V0H450.576ZM515.66 0V57H555.56V0H515.66ZM581.49 0V57H621.39V1.97999C621.39 1.30737 621.401 0.647375 621.424 0H581.49ZM662.76 0V57H702.66V0H662.76ZM722.321 0C722.856 9.33413 725.339 17.6941 729.771 25.08C734.811 33.34 741.601 39.78 750.141 44.4C758.681 48.88 767.991 51.12 778.071 51.12C792.911 51.12 804.181 46.64 811.881 37.68V41.46C811.881 50.56 809.431 57.42 804.531 62.04C799.631 66.66 791.931 68.97 781.431 68.97C774.571 68.97 767.571 67.85 760.431 65.61C753.431 63.51 747.621 60.57 743.001 56.79L728.511 84.72C735.371 89.62 743.701 93.33 753.501 95.85C763.301 98.37 773.801 99.63 785.001 99.63C806.561 99.63 823.081 94.31 834.561 83.67C846.041 73.17 851.781 57.35 851.781 36.21V0H812.025C811.273 5.11326 808.985 9.41326 805.161 12.9C800.541 17.24 794.661 19.41 787.521 19.41C780.381 19.41 774.431 17.24 769.671 12.9C765.847 9.41326 763.559 5.11326 762.807 0H722.321Z" fill="white"/>
</svg>
