<svg width="852" height="100" viewBox="0 0 852 100" fill="none" xmlns="http://www.w3.org/2000/svg">
<path fill-rule="evenodd" clip-rule="evenodd" d="M0.738281 0C2.40372 8.23286 5.37112 15.8929 9.64048 22.98C16.6405 34.6 26.2305 43.7 38.4105 50.28C50.7305 56.72 64.5905 59.94 79.9905 59.94C93.4305 59.94 105.54 57.56 116.32 52.8C127.1 48.04 136.06 41.18 143.2 32.22L116.74 8.28C107.22 19.76 95.6705 25.5 82.0905 25.5C74.1105 25.5 66.9705 23.75 60.6705 20.25C54.5105 16.75 49.6805 11.85 46.1805 5.55C45.2516 3.76955 44.451 1.91955 43.7789 0H0.738281ZM149.223 0C149.243 11.2916 151.972 21.4016 157.413 30.33C163.013 39.29 170.713 46.29 180.513 51.33C190.313 56.37 201.303 58.89 213.483 58.89C225.803 58.89 236.863 56.37 246.663 51.33C256.463 46.29 264.093 39.29 269.553 30.33C274.994 21.4016 277.724 11.2916 277.743 0H237.423C237.402 8.48297 235.162 15.163 230.703 20.04C226.223 24.8 220.483 27.18 213.483 27.18C206.483 27.18 200.743 24.8 196.263 20.04C191.804 15.163 189.564 8.48297 189.543 0H149.223ZM296.227 0V57H336.126V0.509995C336.126 0.339128 336.127 0.16913 336.129 0H296.227ZM373.507 0V57H413.406V0.509995C413.406 0.339128 413.407 0.16913 413.409 0H373.507ZM450.577 0V57H490.477V0H450.577ZM515.66 0V57H555.56V0H515.66ZM581.49 0V57H621.39V1.97999C621.39 1.30737 621.402 0.647375 621.424 0H581.49ZM662.76 0V57H702.66V0H662.76ZM722.322 0C722.857 9.33413 725.34 17.6941 729.771 25.08C734.812 33.34 741.602 39.78 750.141 44.4C758.682 48.88 767.992 51.12 778.071 51.12C792.911 51.12 804.182 46.64 811.882 37.68V41.46C811.882 50.56 809.432 57.42 804.531 62.04C799.631 66.66 791.932 68.97 781.432 68.97C774.571 68.97 767.571 67.85 760.432 65.61C753.432 63.51 747.622 60.57 743.002 56.79L728.511 84.72C735.372 89.62 743.701 93.33 753.502 95.85C763.302 98.37 773.802 99.63 785.002 99.63C806.562 99.63 823.081 94.31 834.562 83.67C846.042 73.17 851.781 57.35 851.781 36.21V0H812.026C811.274 5.11326 808.986 9.41326 805.161 12.9C800.542 17.24 794.661 19.41 787.521 19.41C780.381 19.41 774.432 17.24 769.672 12.9C765.847 9.41326 763.559 5.11326 762.807 0H722.322Z" fill="#00FFFF"/>
</svg>
