<svg width="853" height="212" viewBox="0 0 853 212" fill="none" xmlns="http://www.w3.org/2000/svg">
<path d="M80.99 171.94C65.59 171.94 51.73 168.72 39.41 162.28C27.23 155.7 17.64 146.6 10.64 134.98C3.64 123.36 0.14 110.2 0.14 95.5C0.14 80.8 3.64 67.64 10.64 56.02C17.64 44.4 27.23 35.37 39.41 28.93C51.73 22.35 65.59 19.06 80.99 19.06C94.43 19.06 106.54 21.44 117.32 26.2C128.1 30.96 137.06 37.82 144.2 46.78L117.74 70.72C108.22 59.24 96.67 53.5 83.09 53.5C75.11 53.5 67.97 55.25 61.67 58.75C55.51 62.25 50.68 67.22 47.18 73.66C43.82 79.96 42.14 87.24 42.14 95.5C42.14 103.76 43.82 111.11 47.18 117.55C50.68 123.85 55.51 128.75 61.67 132.25C67.97 135.75 75.11 137.5 83.09 137.5C96.67 137.5 108.22 131.76 117.74 120.28L144.2 144.22C137.06 153.18 128.1 160.04 117.32 164.8C106.54 169.56 94.43 171.94 80.99 171.94ZM214.483 170.89C202.303 170.89 191.313 168.37 181.513 163.33C171.713 158.29 164.013 151.29 158.413 142.33C152.953 133.37 150.223 123.22 150.223 111.88C150.223 100.68 152.953 90.6 158.413 81.64C164.013 72.68 171.643 65.75 181.303 60.85C191.103 55.81 202.163 53.29 214.483 53.29C226.803 53.29 237.863 55.81 247.663 60.85C257.463 65.75 265.093 72.68 270.553 81.64C276.013 90.46 278.743 100.54 278.743 111.88C278.743 123.22 276.013 133.37 270.553 142.33C265.093 151.29 257.463 158.29 247.663 163.33C237.863 168.37 226.803 170.89 214.483 170.89ZM214.483 139.18C221.483 139.18 227.223 136.8 231.703 132.04C236.183 127.14 238.423 120.42 238.423 111.88C238.423 103.48 236.183 96.9 231.703 92.14C227.223 87.38 221.483 85 214.483 85C207.483 85 201.743 87.38 197.263 92.14C192.783 96.9 190.543 103.48 190.543 111.88C190.543 120.42 192.783 127.14 197.263 132.04C201.743 136.8 207.483 139.18 214.483 139.18ZM445.486 53.29C459.486 53.29 470.616 57.49 478.876 65.89C487.276 74.29 491.476 86.96 491.476 103.9V169H451.576V110.41C451.576 102.43 450.036 96.55 446.956 92.77C444.016 88.99 439.816 87.1 434.356 87.1C428.336 87.1 423.506 89.2 419.866 93.4C416.226 97.6 414.406 103.97 414.406 112.51V169H374.506V110.41C374.506 94.87 368.766 87.1 357.286 87.1C351.126 87.1 346.226 89.2 342.586 93.4C338.946 97.6 337.126 103.97 337.126 112.51V169H297.226V55.18H335.236V67.15C339.436 62.53 344.406 59.1 350.146 56.86C356.026 54.48 362.396 53.29 369.256 53.29C377.236 53.29 384.376 54.76 390.676 57.7C396.976 60.64 402.086 65.12 406.006 71.14C410.486 65.4 416.156 60.99 423.016 57.91C429.876 54.83 437.366 53.29 445.486 53.29ZM516.66 55.18H556.56V169H516.66V55.18ZM536.61 42.58C529.33 42.58 523.45 40.55 518.97 36.49C514.49 32.43 512.25 27.39 512.25 21.37C512.25 15.35 514.49 10.31 518.97 6.24999C523.45 2.18999 529.33 0.159996 536.61 0.159996C543.89 0.159996 549.77 2.12 554.25 6.04C558.73 9.82 560.97 14.72 560.97 20.74C560.97 27.04 558.73 32.29 554.25 36.49C549.77 40.55 543.89 42.58 536.61 42.58ZM656.62 53.29C670.76 53.29 682.1 57.49 690.64 65.89C699.32 74.29 703.66 86.96 703.66 103.9V169H663.76V110.41C663.76 94.87 657.53 87.1 645.07 87.1C638.21 87.1 632.68 89.34 628.48 93.82C624.42 98.3 622.39 105.02 622.39 113.98V169H582.49V55.18H620.5V67.57C624.98 62.95 630.3 59.45 636.46 57.07C642.62 54.55 649.34 53.29 656.62 53.29ZM852.781 55.18V148.21C852.781 169.35 847.041 185.17 835.561 195.67C824.081 206.31 807.561 211.63 786.001 211.63C774.801 211.63 764.301 210.37 754.501 207.85C744.701 205.33 736.371 201.62 729.511 196.72L744.001 168.79C748.621 172.57 754.431 175.51 761.431 177.61C768.571 179.85 775.571 180.97 782.431 180.97C792.931 180.97 800.631 178.66 805.531 174.04C810.431 169.42 812.881 162.56 812.881 153.46V149.68C805.181 158.64 793.911 163.12 779.071 163.12C768.991 163.12 759.681 160.88 751.141 156.4C742.601 151.78 735.811 145.34 730.771 137.08C725.731 128.68 723.211 119.02 723.211 108.1C723.211 97.32 725.731 87.8 730.771 79.54C735.811 71.14 742.601 64.7 751.141 60.22C759.681 55.6 768.991 53.29 779.071 53.29C795.311 53.29 807.211 58.54 814.771 69.04V55.18H852.781ZM788.521 131.41C795.661 131.41 801.541 129.24 806.161 124.9C810.921 120.56 813.301 114.96 813.301 108.1C813.301 101.24 810.991 95.71 806.371 91.51C801.751 87.17 795.801 85 788.521 85C781.241 85 775.221 87.17 770.461 91.51C765.841 95.71 763.531 101.24 763.531 108.1C763.531 114.96 765.911 120.56 770.671 124.9C775.431 129.24 781.381 131.41 788.521 131.41Z" fill="white"/>
</svg>
