<svg width="853" height="112" viewBox="0 0 853 112" fill="none" xmlns="http://www.w3.org/2000/svg">
<path fill-rule="evenodd" clip-rule="evenodd" d="M278.603 111.84C278.603 111.8 278.603 111.76 278.603 111.72C278.603 100.38 275.873 90.3 270.413 81.48C264.953 72.52 257.323 65.59 247.523 60.69C237.723 55.65 226.663 53.13 214.343 53.13C202.023 53.13 190.963 55.65 181.163 60.69C171.503 65.59 163.873 72.52 158.273 81.48C152.813 90.44 150.083 100.52 150.083 111.72C150.083 111.76 150.083 111.8 150.083 111.84H190.403C190.403 111.8 190.403 111.76 190.403 111.72C190.403 103.32 192.643 96.74 197.123 91.98C201.603 87.22 207.343 84.84 214.343 84.84C221.343 84.84 227.083 87.22 231.563 91.98C236.043 96.74 238.283 103.32 238.283 111.72C238.283 111.76 238.283 111.8 238.283 111.84H278.603ZM336.988 111.84H297.086V55.02H335.096V66.99C339.296 62.37 344.266 58.94 350.006 56.7C355.886 54.32 362.256 53.13 369.116 53.13C377.096 53.13 384.236 54.6 390.536 57.54C396.836 60.48 401.946 64.96 405.866 70.98C410.346 65.24 416.016 60.83 422.876 57.75C429.736 54.67 437.226 53.13 445.346 53.13C459.346 53.13 470.476 57.33 478.736 65.73C487.136 74.13 491.336 86.8 491.336 103.74V111.84H451.436V110.25C451.436 102.27 449.896 96.39 446.816 92.61C443.876 88.83 439.676 86.94 434.216 86.94C428.196 86.94 423.366 89.04 419.726 93.24C416.159 97.356 414.34 103.556 414.268 111.84H374.366V110.25C374.366 94.71 368.626 86.94 357.146 86.94C350.986 86.94 346.086 89.04 342.446 93.24C338.879 97.356 337.06 103.556 336.988 111.84ZM556.42 111.84H516.52V55.02H556.42V111.84ZM622.284 111.84H582.35V55.02H620.36V67.41C624.84 62.79 630.16 59.29 636.32 56.91C642.48 54.39 649.2 53.13 656.48 53.13C670.62 53.13 681.96 57.33 690.5 65.73C699.18 74.13 703.52 86.8 703.52 103.74V111.84H663.62V110.25C663.62 94.71 657.39 86.94 644.93 86.94C638.07 86.94 632.54 89.18 628.34 93.66C624.584 97.8037 622.566 103.864 622.284 111.84ZM852.641 111.84V55.02H814.631V68.88C807.071 58.38 795.171 53.13 778.931 53.13C768.851 53.13 759.541 55.44 751.001 60.06C742.461 64.54 735.671 70.98 730.631 79.38C725.591 87.64 723.071 97.16 723.071 107.94C723.071 109.258 723.108 110.558 723.181 111.84H763.667C763.483 110.589 763.391 109.289 763.391 107.94C763.391 101.08 765.701 95.55 770.321 91.35C775.081 87.01 781.101 84.84 788.381 84.84C795.661 84.84 801.611 87.01 806.231 91.35C810.851 95.55 813.161 101.08 813.161 107.94C813.161 109.289 813.069 110.589 812.885 111.84H852.641ZM1.5978 111.84C0.5326 106.574 0 101.074 0 95.34C0 80.64 3.5 67.48 10.5 55.86C17.5 44.24 27.09 35.21 39.27 28.77C51.59 22.19 65.45 18.9 80.85 18.9C94.29 18.9 106.4 21.28 117.18 26.04C127.96 30.8 136.92 37.66 144.06 46.62L117.6 70.56C108.08 59.08 96.53 53.34 82.95 53.34C74.97 53.34 67.83 55.09 61.53 58.59C55.37 62.09 50.54 67.06 47.04 73.5C43.68 79.8 42 87.08 42 95.34C42 101.316 42.8795 106.816 44.6384 111.84H1.5978ZM518.83 36.33C523.31 40.39 529.19 42.42 536.47 42.42C543.75 42.42 549.63 40.39 554.11 36.33C558.59 32.13 560.83 26.88 560.83 20.58C560.83 14.56 558.59 9.66 554.11 5.88C549.63 1.96 543.75 0 536.47 0C529.19 0 523.31 2.03 518.83 6.09C514.35 10.15 512.11 15.19 512.11 21.21C512.11 27.23 514.35 32.27 518.83 36.33Z" fill="#00FFFF"/>
</svg>
