<svg width="187" height="187" viewBox="0 0 187 187" fill="none" xmlns="http://www.w3.org/2000/svg">
<g filter="url(#filter0_dd)">
<circle cx="86.1135" cy="86.1133" r="40" transform="rotate(-28.0579 86.1135 86.1133)" fill="url(#paint0_linear)"/>
</g>
<path d="M94.2088 72.9391C94.2088 73.4577 93.5281 73.8782 92.6884 73.8782C91.8487 73.8782 91.168 73.4577 91.168 72.9391C91.168 72.4204 91.8487 72 92.6884 72C93.5281 72 94.2088 72.4204 94.2088 72.9391ZM91.5553 72.9391C91.5553 73.3256 92.0626 73.639 92.6884 73.639C93.3142 73.639 93.8215 73.3256 93.8215 72.9391C93.8215 72.5526 93.3142 72.2392 92.6884 72.2392C92.0626 72.2392 91.5553 72.5526 91.5553 72.9391Z" fill="#FF7800"/>
<path d="M94.2073 74.401C94.2073 74.6172 94.0499 74.8245 93.7697 74.9774C93.4894 75.1302 93.1094 75.2161 92.713 75.2161C92.3167 75.2161 91.9367 75.1302 91.6564 74.9774C91.3762 74.8245 91.2188 74.6172 91.2188 74.401L91.5175 74.401C91.5175 74.574 91.6434 74.7398 91.8677 74.8621C92.0919 74.9844 92.396 75.0531 92.713 75.0531C93.0301 75.0531 93.3342 74.9844 93.5584 74.8621C93.7827 74.7398 93.9086 74.574 93.9086 74.401H94.2073Z" fill="#FF7800"/>
<path d="M91.3711 74.3984V73.1758" stroke="#FF7800" stroke-width="0.27169"/>
<path d="M94.0586 74.3984V73.1758" stroke="#FF7800" stroke-width="0.27169"/>
<path d="M80.076 81.6852C80.076 82.2038 79.3953 82.6243 78.5556 82.6243C77.7159 82.6243 77.0352 82.2038 77.0352 81.6852C77.0352 81.1665 77.7159 80.7461 78.5556 80.7461C79.3953 80.7461 80.076 81.1665 80.076 81.6852ZM77.4225 81.6852C77.4225 82.0717 77.9298 82.3851 78.5556 82.3851C79.1814 82.3851 79.6887 82.0717 79.6887 81.6852C79.6887 81.2987 79.1814 80.9853 78.5556 80.9853C77.9298 80.9853 77.4225 81.2987 77.4225 81.6852Z" fill="#FF7800"/>
<path d="M80.0745 83.1471C80.0745 83.3633 79.9171 83.5706 79.6369 83.7234C79.3566 83.8763 78.9765 83.9622 78.5802 83.9622C78.1839 83.9622 77.8038 83.8763 77.5236 83.7234C77.2434 83.5706 77.0859 83.3633 77.0859 83.1471L77.3847 83.1471C77.3847 83.3201 77.5106 83.4859 77.7348 83.6082C77.9591 83.7305 78.2631 83.7992 78.5802 83.7992C78.8973 83.7992 79.2014 83.7305 79.4256 83.6082C79.6498 83.4859 79.7758 83.3201 79.7758 83.1471H80.0745Z" fill="#FF7800"/>
<path d="M77.2383 83.1445V81.9219" stroke="#FF7800" stroke-width="0.27169"/>
<path d="M79.9258 83.1445V81.9219" stroke="#FF7800" stroke-width="0.27169"/>
<path d="M90.5604 91.8766C90.5604 92.3952 89.8797 92.8157 89.04 92.8157C88.2003 92.8157 87.5195 92.3952 87.5195 91.8766C87.5195 91.3579 88.2003 90.9375 89.04 90.9375C89.8797 90.9375 90.5604 91.3579 90.5604 91.8766ZM87.9068 91.8766C87.9068 92.2631 88.4142 92.5765 89.04 92.5765C89.6658 92.5765 90.1731 92.2631 90.1731 91.8766C90.1731 91.4901 89.6658 91.1767 89.04 91.1767C88.4142 91.1767 87.9068 91.4901 87.9068 91.8766Z" fill="#FF7800"/>
<path d="M90.5589 93.3385C90.5589 93.5547 90.4015 93.762 90.1212 93.9149C89.841 94.0677 89.4609 94.1536 89.0646 94.1536C88.6683 94.1536 88.2882 94.0677 88.008 93.9149C87.7277 93.762 87.5703 93.5547 87.5703 93.3385L87.869 93.3385C87.869 93.5115 87.995 93.6773 88.2192 93.7996C88.4434 93.9219 88.7475 93.9906 89.0646 93.9906C89.3817 93.9906 89.6858 93.9219 89.91 93.7996C90.1342 93.6773 90.2602 93.5115 90.2602 93.3385H90.5589Z" fill="#FF7800"/>
<path d="M87.7227 93.3359V92.1133" stroke="#FF7800" stroke-width="0.27169"/>
<path d="M90.4102 93.3359V92.1133" stroke="#FF7800" stroke-width="0.27169"/>
<path d="M87.0643 89.8375C87.0643 90.3562 86.3836 90.7766 85.5439 90.7766C84.7042 90.7766 84.0234 90.3562 84.0234 89.8375C84.0234 89.3189 84.7042 88.8984 85.5439 88.8984C86.3836 88.8984 87.0643 89.3189 87.0643 89.8375ZM84.4107 89.8375C84.4107 90.2241 84.9181 90.5374 85.5439 90.5374C86.1697 90.5374 86.677 90.2241 86.677 89.8375C86.677 89.451 86.1697 89.1377 85.5439 89.1377C84.9181 89.1377 84.4107 89.451 84.4107 89.8375Z" fill="#FF7800"/>
<path d="M87.0628 91.2994C87.0628 91.5156 86.9054 91.7229 86.6251 91.8758C86.3449 92.0286 85.9648 92.1145 85.5685 92.1145C85.1722 92.1145 84.7921 92.0286 84.5119 91.8758C84.2317 91.7229 84.0742 91.5156 84.0742 91.2994L84.3729 91.2994C84.3729 91.4724 84.4989 91.6383 84.7231 91.7606C84.9473 91.8829 85.2514 91.9516 85.5685 91.9516C85.8856 91.9516 86.1897 91.8829 86.4139 91.7606C86.6381 91.6383 86.7641 91.4724 86.7641 91.2994H87.0628Z" fill="#FF7800"/>
<path d="M84.2266 91.2968V90.0742" stroke="#FF7800" stroke-width="0.27169"/>
<path d="M86.9141 91.2968V90.0742" stroke="#FF7800" stroke-width="0.27169"/>
<path d="M90.5604 79.3532C90.5604 79.8718 89.8797 80.2922 89.04 80.2922C88.2003 80.2922 87.5195 79.8718 87.5195 79.3532C87.5195 78.8345 88.2003 78.4141 89.04 78.4141C89.8797 78.4141 90.5604 78.8345 90.5604 79.3532ZM87.9068 79.3532C87.9068 79.7397 88.4142 80.053 89.04 80.053C89.6658 80.053 90.1731 79.7397 90.1731 79.3532C90.1731 78.9666 89.6658 78.6533 89.04 78.6533C88.4142 78.6533 87.9068 78.9666 87.9068 79.3532Z" fill="#FF7800"/>
<path d="M90.5589 80.8112C90.5589 81.0273 90.4015 81.2347 90.1212 81.3875C89.841 81.5404 89.4609 81.6262 89.0646 81.6262C88.6683 81.6262 88.2882 81.5404 88.008 81.3875C87.7277 81.2347 87.5703 81.0273 87.5703 80.8112L87.869 80.8112C87.869 80.9841 87.995 81.15 88.2192 81.2723C88.4434 81.3946 88.7475 81.4633 89.0646 81.4633C89.3817 81.4633 89.6858 81.3946 89.91 81.2723C90.1342 81.15 90.2602 80.9841 90.2602 80.8112H90.5589Z" fill="#FF7800"/>
<path d="M87.7227 80.8125V79.5898" stroke="#FF7800" stroke-width="0.27169"/>
<path d="M90.4102 80.8125V79.5898" stroke="#FF7800" stroke-width="0.27169"/>
<path d="M94.0565 81.4C94.0565 81.9187 93.3758 82.3391 92.5361 82.3391C91.6963 82.3391 91.0156 81.9187 91.0156 81.4C91.0156 80.8814 91.6963 80.4609 92.5361 80.4609C93.3758 80.4609 94.0565 80.8814 94.0565 81.4ZM91.4029 81.4C91.4029 81.7866 91.9103 82.0999 92.5361 82.0999C93.1619 82.0999 93.6692 81.7866 93.6692 81.4C93.6692 81.0135 93.1619 80.7002 92.5361 80.7002C91.9103 80.7002 91.4029 81.0135 91.4029 81.4Z" fill="#FF7800"/>
<path d="M94.055 82.8619C94.055 83.0781 93.8976 83.2854 93.6173 83.4383C93.3371 83.5911 92.957 83.677 92.5607 83.677C92.1644 83.677 91.7843 83.5911 91.5041 83.4383C91.2238 83.2854 91.0664 83.0781 91.0664 82.8619L91.3651 82.8619C91.3651 83.0349 91.4911 83.2008 91.7153 83.3231C91.9395 83.4454 92.2436 83.5141 92.5607 83.5141C92.8778 83.5141 93.1819 83.4454 93.4061 83.3231C93.6303 83.2008 93.7563 83.0349 93.7563 82.8619H94.055Z" fill="#FF7800"/>
<path d="M91.2188 82.8593V81.6367" stroke="#FF7800" stroke-width="0.27169"/>
<path d="M93.9062 82.8593V81.6367" stroke="#FF7800" stroke-width="0.27169"/>
<path d="M90.5604 83.7282C90.5604 84.2468 89.8797 84.6672 89.04 84.6672C88.2003 84.6672 87.5195 84.2468 87.5195 83.7282C87.5195 83.2095 88.2003 82.7891 89.04 82.7891C89.8797 82.7891 90.5604 83.2095 90.5604 83.7282ZM87.9068 83.7282C87.9068 84.1147 88.4142 84.428 89.04 84.428C89.6658 84.428 90.1731 84.1147 90.1731 83.7282C90.1731 83.3416 89.6658 83.0283 89.04 83.0283C88.4142 83.0283 87.9068 83.3416 87.9068 83.7282Z" fill="#FF7800"/>
<path d="M90.5589 85.1901C90.5589 85.4062 90.4015 85.6136 90.1212 85.7664C89.841 85.9193 89.4609 86.0051 89.0646 86.0051C88.6683 86.0051 88.2882 85.9193 88.008 85.7664C87.7277 85.6136 87.5703 85.4062 87.5703 85.1901L87.869 85.1901C87.869 85.363 87.995 85.5289 88.2192 85.6512C88.4434 85.7735 88.7475 85.8422 89.0646 85.8422C89.3817 85.8422 89.6858 85.7735 89.91 85.6512C90.1342 85.5289 90.2602 85.363 90.2602 85.1901H90.5589Z" fill="#FF7800"/>
<path d="M87.7227 85.1875V83.9648" stroke="#FF7800" stroke-width="0.27169"/>
<path d="M90.4102 85.1875V83.9648" stroke="#FF7800" stroke-width="0.27169"/>
<path d="M87.0643 85.7633C87.0643 86.282 86.3836 86.7024 85.5439 86.7024C84.7042 86.7024 84.0234 86.282 84.0234 85.7633C84.0234 85.2447 84.7042 84.8242 85.5439 84.8242C86.3836 84.8242 87.0643 85.2447 87.0643 85.7633ZM84.4107 85.7633C84.4107 86.1498 84.9181 86.4632 85.5439 86.4632C86.1697 86.4632 86.677 86.1498 86.677 85.7633C86.677 85.3768 86.1697 85.0634 85.5439 85.0634C84.9181 85.0634 84.4107 85.3768 84.4107 85.7633Z" fill="#FF7800"/>
<path d="M87.0628 87.2252C87.0628 87.4414 86.9054 87.6487 86.6251 87.8016C86.3449 87.9544 85.9648 88.0403 85.5685 88.0403C85.1722 88.0403 84.7921 87.9544 84.5119 87.8016C84.2317 87.6487 84.0742 87.4414 84.0742 87.2252L84.3729 87.2252C84.3729 87.3982 84.4989 87.5641 84.7231 87.6864C84.9473 87.8087 85.2514 87.8774 85.5685 87.8774C85.8856 87.8774 86.1897 87.8086 86.4139 87.6864C86.6381 87.5641 86.7641 87.3982 86.7641 87.2252H87.0628Z" fill="#FF7800"/>
<path d="M84.2266 87.2226V86" stroke="#FF7800" stroke-width="0.27169"/>
<path d="M86.9141 87.2226V86" stroke="#FF7800" stroke-width="0.27169"/>
<path d="M83.5721 83.7282C83.5721 84.2468 82.8914 84.6672 82.0517 84.6672C81.212 84.6672 80.5312 84.2468 80.5312 83.7282C80.5312 83.2095 81.212 82.7891 82.0517 82.7891C82.8914 82.7891 83.5721 83.2095 83.5721 83.7282ZM80.9186 83.7282C80.9186 84.1147 81.4259 84.428 82.0517 84.428C82.6775 84.428 83.1848 84.1147 83.1848 83.7282C83.1848 83.3416 82.6775 83.0283 82.0517 83.0283C81.4259 83.0283 80.9186 83.3416 80.9186 83.7282Z" fill="#FF7800"/>
<path d="M83.5706 85.1901C83.5706 85.4062 83.4132 85.6136 83.133 85.7664C82.8527 85.9193 82.4726 86.0051 82.0763 86.0051C81.68 86.0051 81.2999 85.9193 81.0197 85.7664C80.7395 85.6136 80.582 85.4062 80.582 85.1901L80.8808 85.1901C80.8808 85.363 81.0067 85.5289 81.2309 85.6512C81.4551 85.7735 81.7592 85.8422 82.0763 85.8422C82.3934 85.8422 82.6975 85.7735 82.9217 85.6512C83.1459 85.5289 83.2719 85.363 83.2719 85.1901H83.5706Z" fill="#FF7800"/>
<path d="M80.7344 85.1875V83.9648" stroke="#FF7800" stroke-width="0.27169"/>
<path d="M83.4219 85.1875V83.9648" stroke="#FF7800" stroke-width="0.27169"/>
<path d="M83.5721 79.6461C83.5721 80.1648 82.8914 80.5852 82.0517 80.5852C81.212 80.5852 80.5312 80.1648 80.5312 79.6461C80.5312 79.1275 81.212 78.707 82.0517 78.707C82.8914 78.707 83.5721 79.1275 83.5721 79.6461ZM80.9186 79.6461C80.9186 80.0326 81.4259 80.346 82.0517 80.346C82.6775 80.346 83.1848 80.0326 83.1848 79.6461C83.1848 79.2596 82.6775 78.9463 82.0517 78.9463C81.4259 78.9463 80.9186 79.2596 80.9186 79.6461Z" fill="#FF7800"/>
<path d="M83.5706 81.108C83.5706 81.3242 83.4132 81.5315 83.133 81.6844C82.8527 81.8372 82.4726 81.9231 82.0763 81.9231C81.68 81.9231 81.2999 81.8372 81.0197 81.6844C80.7395 81.5315 80.582 81.3242 80.582 81.108L80.8808 81.108C80.8808 81.281 81.0067 81.4469 81.2309 81.5692C81.4551 81.6915 81.7592 81.7602 82.0763 81.7602C82.3934 81.7602 82.6975 81.6915 82.9217 81.5692C83.1459 81.4469 83.2719 81.281 83.2719 81.108H83.5706Z" fill="#FF7800"/>
<path d="M80.7344 81.1054V79.8828" stroke="#FF7800" stroke-width="0.27169"/>
<path d="M83.4219 81.1054V79.8828" stroke="#FF7800" stroke-width="0.27169"/>
<path d="M87.0643 77.3219C87.0643 77.8405 86.3836 78.261 85.5439 78.261C84.7042 78.261 84.0234 77.8405 84.0234 77.3219C84.0234 76.8033 84.7042 76.3828 85.5439 76.3828C86.3836 76.3828 87.0643 76.8033 87.0643 77.3219ZM84.4107 77.3219C84.4107 77.7084 84.9181 78.0218 85.5439 78.0218C86.1697 78.0218 86.677 77.7084 86.677 77.3219C86.677 76.9354 86.1697 76.622 85.5439 76.622C84.9181 76.622 84.4107 76.9354 84.4107 77.3219Z" fill="#FF7800"/>
<path d="M87.0628 78.7838C87.0628 79 86.9054 79.2073 86.6251 79.3602C86.3449 79.513 85.9648 79.5989 85.5685 79.5989C85.1722 79.5989 84.7921 79.513 84.5119 79.3602C84.2317 79.2073 84.0742 79 84.0742 78.7838L84.3729 78.7838C84.3729 78.9568 84.4989 79.1226 84.7231 79.2449C84.9473 79.3672 85.2514 79.4359 85.5685 79.4359C85.8856 79.4359 86.1897 79.3672 86.4139 79.2449C86.6381 79.1226 86.7641 78.9568 86.7641 78.7838H87.0628Z" fill="#FF7800"/>
<path d="M84.2266 78.7812V77.5586" stroke="#FF7800" stroke-width="0.27169"/>
<path d="M86.9141 78.7812V77.5586" stroke="#FF7800" stroke-width="0.27169"/>
<path d="M90.5604 75.275C90.5604 75.7937 89.8797 76.2141 89.04 76.2141C88.2003 76.2141 87.5195 75.7937 87.5195 75.275C87.5195 74.7564 88.2003 74.3359 89.04 74.3359C89.8797 74.3359 90.5604 74.7564 90.5604 75.275ZM87.9068 75.275C87.9068 75.6616 88.4142 75.9749 89.04 75.9749C89.6658 75.9749 90.1731 75.6616 90.1731 75.275C90.1731 74.8885 89.6658 74.5752 89.04 74.5752C88.4142 74.5752 87.9068 74.8885 87.9068 75.275Z" fill="#FF7800"/>
<path d="M90.5589 76.7369C90.5589 76.9531 90.4015 77.1604 90.1212 77.3133C89.841 77.4661 89.4609 77.552 89.0646 77.552C88.6683 77.552 88.2882 77.4661 88.008 77.3133C87.7277 77.1604 87.5703 76.9531 87.5703 76.7369L87.869 76.7369C87.869 76.9099 87.995 77.0758 88.2192 77.1981C88.4434 77.3204 88.7475 77.3891 89.0646 77.3891C89.3817 77.3891 89.6858 77.3204 89.91 77.1981C90.1342 77.0758 90.2602 76.9099 90.2602 76.7369H90.5589Z" fill="#FF7800"/>
<path d="M87.7227 76.7343V75.5117" stroke="#FF7800" stroke-width="0.27169"/>
<path d="M90.4102 76.7343V75.5117" stroke="#FF7800" stroke-width="0.27169"/>
<path d="M89.1014 99.4648L92.5387 97.4377V93.2073M89.1014 99.4648V95.2784M89.1014 99.4648L85.5761 97.3716M82.0507 91.048V95.2784L85.5761 97.3716M82.0507 91.048L85.5761 93.1632M82.0507 91.048V86.9497M82.0507 91.048L78.5254 88.9989M82.0507 91.048L84.1659 89.77M75 82.6312V86.9497L78.5254 88.9989M75 82.6312L78.5254 84.7023M75 82.6312L78.5694 80.5072M96.1962 74.1262V78.3567L92.5387 80.4719M96.1962 74.1262L92.5387 76.2415M96.1962 74.1262L94.1251 72.9805M92.5387 80.4719V76.2415M92.5387 80.4719L90.4295 79.143M96.1962 82.6312V86.9497L92.6488 88.9989M96.1962 82.6312L92.6488 84.7419M96.1962 82.6312L93.9229 81.3264M89.1014 91.048V86.8527M89.1014 91.048L92.6488 88.9989M89.1014 91.048L86.936 89.77M92.5387 93.2073L89.1014 95.2784M92.5387 93.2073L90.4295 91.9523M89.1014 95.2784L85.5761 93.1632M85.5761 93.1632V97.3716M85.5761 93.1632L87.6638 91.9523M82.0507 86.9497L85.5761 88.9503L89.1014 86.8527M82.0507 86.9497L78.5254 84.7023M82.0507 86.9497L84.1704 85.5477L84.763 85.1911L85.3557 84.8345L85.5761 84.7023M89.1014 86.8527L92.6488 84.7419M89.1014 86.8527L85.7715 84.8199M85.5761 84.7023V80.4719M85.5761 84.7023L82.0507 82.6312M85.5761 84.7023L85.7964 84.8345M85.5761 84.7023L87.8094 83.3642L88.2461 83.0731L88.8283 82.782L89.1014 82.6312M78.5254 88.9989V84.7023M78.5254 84.7023L82.0507 82.6312M82.0507 82.6312L85.5761 80.4719M82.0507 82.6312L78.5694 80.5072M85.5761 80.4719L89.1014 82.6312M85.5761 80.4719L82.3151 78.4889L82.0885 78.3567M85.5761 80.4719L87.8094 79.143M89.1014 78.3567L92.5387 76.2415M89.1014 78.3567L85.5963 76.2415M89.1014 78.3567L88.9252 78.4889M89.1014 78.3567L89.3218 78.4889M92.5387 76.2415L89.1014 74.1278M89.1014 74.1278L85.5963 76.2415M89.1014 74.1278L91.4484 72.7383M85.5963 76.2415L82.0885 78.3567M82.0885 78.3567L78.5694 80.5072M89.1014 82.6312L92.6488 84.7419M89.1014 82.6312L91.1573 81.3264M92.6488 84.7419V88.9989" stroke="#FF7800" stroke-width="0.291122" stroke-linejoin="round"/>
<defs>
<filter id="filter0_dd" x="0.0681891" y="0.0681891" width="186.16" height="186.16" filterUnits="userSpaceOnUse" color-interpolation-filters="sRGB">
<feFlood flood-opacity="0" result="BackgroundImageFix"/>
<feColorMatrix in="SourceAlpha" type="matrix" values="0 0 0 0 0 0 0 0 0 0 0 0 0 0 0 0 0 0 127 0" result="hardAlpha"/>
<feOffset dx="-7.03448" dy="-7.03448"/>
<feGaussianBlur stdDeviation="11.9586"/>
<feComposite in2="hardAlpha" operator="out"/>
<feColorMatrix type="matrix" values="0 0 0 0 0.0166667 0 0 0 0 0 0 0 0 0 0 0 0 0 0.58 0"/>
<feBlend mode="normal" in2="BackgroundImageFix" result="effect1_dropShadow"/>
<feColorMatrix in="SourceAlpha" type="matrix" values="0 0 0 0 0 0 0 0 0 0 0 0 0 0 0 0 0 0 127 0" result="hardAlpha"/>
<feOffset dx="7.03448" dy="7.03448"/>
<feGaussianBlur stdDeviation="19.4831"/>
<feComposite in2="hardAlpha" operator="out"/>
<feColorMatrix type="matrix" values="0 0 0 0 1 0 0 0 0 0.470588 0 0 0 0 0 0 0 0 1 0"/>
<feBlend mode="normal" in2="effect1_dropShadow" result="effect2_dropShadow"/>
<feBlend mode="normal" in="SourceGraphic" in2="effect2_dropShadow" result="shape"/>
</filter>
<linearGradient id="paint0_linear" x1="56.9" y1="53.7537" x2="98.1414" y2="102.337" gradientUnits="userSpaceOnUse">
<stop stop-color="#FF6800"/>
<stop offset="1"/>
</linearGradient>
</defs>
</svg>
