<svg width="509" height="509" viewBox="0 0 509 509" fill="none" xmlns="http://www.w3.org/2000/svg">
<g filter="url(#filter0_dd)">
<circle cx="226.288" cy="226.288" r="100.288" fill="url(#paint0_linear)"/>
</g>
<path d="M282.926 200.899L246.207 201.039L251.994 233.62L266.594 237.681L279.448 233.515L282.926 200.899Z" stroke="white" stroke-width="0.37"/>
<path d="M264.74 216.501C266.371 216.495 267.578 216.81 268.363 217.445C269.147 218.07 269.541 218.928 269.546 220.019C269.548 220.713 269.38 221.341 269.041 221.904C268.701 222.467 268.191 222.916 267.509 223.249C266.827 223.582 265.985 223.75 264.983 223.754C264.157 223.757 263.358 223.645 262.586 223.416C261.813 223.177 261.162 222.849 260.632 222.432L261.534 220.76C261.965 221.111 262.479 221.39 263.074 221.597C263.681 221.793 264.304 221.889 264.943 221.887C265.703 221.884 266.297 221.728 266.725 221.417C267.165 221.096 267.383 220.66 267.381 220.11C267.379 219.515 267.14 219.069 266.666 218.774C266.202 218.467 265.403 218.316 264.268 218.32L261.475 218.331L262.046 212.033L268.837 212.007L268.844 213.808L263.871 213.827L263.633 216.505L264.74 216.501Z" fill="white"/>
<path d="M216.94 218.118L175.207 218.277L181.784 255.307L198.378 259.922L212.987 255.188L216.94 218.118Z" stroke="white" stroke-width="0.36991"/>
<path d="M198.609 234.949C199.905 235.105 200.895 235.542 201.579 236.26C202.263 236.979 202.607 237.879 202.611 238.961C202.614 239.775 202.41 240.517 201.999 241.187C201.587 241.856 200.962 242.392 200.122 242.796C199.295 243.187 198.281 243.384 197.079 243.389C196.077 243.393 195.109 243.256 194.173 242.979C193.25 242.689 192.461 242.291 191.804 241.786L192.919 239.759C193.428 240.184 194.043 240.523 194.765 240.774C195.501 241.011 196.256 241.128 197.03 241.125C197.952 241.122 198.672 240.932 199.192 240.556C199.724 240.167 199.989 239.645 199.987 238.991C199.984 238.336 199.729 237.83 199.22 237.471C198.724 237.099 197.962 236.915 196.934 236.919L195.652 236.924L195.645 235.141L198.816 231.343L192.446 231.367L192.437 229.184L201.993 229.147L201.999 230.89L198.609 234.949Z" fill="white"/>
<path d="M252.606 197.614L201.613 197.809L206.884 243.168L228.341 249.7L247.99 243.011L252.606 197.614Z" stroke="white" stroke-width="0.6"/>
<path d="M215.88 232.065C214.42 232.07 213.069 231.792 211.825 231.231C210.603 230.647 209.598 229.834 208.81 228.792L211.217 225.875C212.487 227.613 214.004 228.478 215.768 228.471C218.142 228.462 219.324 227.053 219.313 224.243L219.268 212.415L211.133 212.446L211.119 208.885L223.502 208.838L223.56 223.998C223.57 226.677 222.924 228.694 221.623 230.05C220.321 231.384 218.406 232.055 215.88 232.065ZM236.638 231.985C234.874 231.992 233.163 231.748 231.506 231.254C229.87 230.759 228.572 230.1 227.61 229.275L229.068 225.97C230.007 226.707 231.153 227.312 232.505 227.786C233.879 228.239 235.252 228.462 236.625 228.457C238.324 228.45 239.586 228.173 240.412 227.626C241.259 227.078 241.681 226.357 241.678 225.464C241.675 224.811 241.433 224.278 240.953 223.866C240.494 223.432 239.904 223.097 239.184 222.86C238.465 222.623 237.484 222.355 236.241 222.054C234.497 221.647 233.079 221.239 231.989 220.829C230.92 220.419 229.992 219.78 229.204 218.912C228.438 218.022 228.053 216.825 228.047 215.322C228.042 214.059 228.375 212.914 229.047 211.888C229.74 210.84 230.771 210.008 232.141 209.393C233.533 208.778 235.23 208.466 237.234 208.459C238.628 208.453 240.001 208.622 241.353 208.966C242.705 209.309 243.872 209.805 244.855 210.455L243.528 213.76C242.524 213.176 241.476 212.733 240.386 212.433C239.296 212.132 238.239 211.983 237.215 211.987C235.538 211.994 234.287 212.282 233.461 212.851C232.657 213.421 232.257 214.174 232.261 215.11C232.263 215.764 232.494 216.296 232.953 216.709C233.434 217.121 234.034 217.445 234.754 217.682C235.474 217.919 236.455 218.187 237.697 218.487C239.398 218.873 240.794 219.282 241.884 219.713C242.975 220.123 243.903 220.762 244.669 221.63C245.456 222.498 245.853 223.673 245.859 225.154C245.863 226.418 245.519 227.562 244.826 228.589C244.155 229.615 243.123 230.436 241.732 231.051C240.34 231.666 238.642 231.978 236.638 231.985Z" fill="white"/>
<defs>
<filter id="filter0_dd" x="0" y="0" width="508.576" height="508.576" filterUnits="userSpaceOnUse" color-interpolation-filters="sRGB">
<feFlood flood-opacity="0" result="BackgroundImageFix"/>
<feColorMatrix in="SourceAlpha" type="matrix" values="0 0 0 0 0 0 0 0 0 0 0 0 0 0 0 0 0 0 127 0" result="hardAlpha"/>
<feOffset dx="-28" dy="-28"/>
<feGaussianBlur stdDeviation="47"/>
<feComposite in2="hardAlpha" operator="out"/>
<feColorMatrix type="matrix" values="0 0 0 0 0.85098 0 0 0 0 0.85098 0 0 0 0 0.00392157 0 0 0 1 0"/>
<feBlend mode="normal" in2="BackgroundImageFix" result="effect1_dropShadow"/>
<feColorMatrix in="SourceAlpha" type="matrix" values="0 0 0 0 0 0 0 0 0 0 0 0 0 0 0 0 0 0 127 0" result="hardAlpha"/>
<feOffset dx="28" dy="28"/>
<feGaussianBlur stdDeviation="77"/>
<feComposite in2="hardAlpha" operator="out"/>
<feColorMatrix type="matrix" values="0 0 0 0 0.882353 0 0 0 0 0.882353 0 0 0 0 0.00392157 0 0 0 1 0"/>
<feBlend mode="normal" in2="effect1_dropShadow" result="effect2_dropShadow"/>
<feBlend mode="normal" in="SourceGraphic" in2="effect2_dropShadow" result="shape"/>
</filter>
<linearGradient id="paint0_linear" x1="153.044" y1="145.156" x2="234.996" y2="283.992" gradientUnits="userSpaceOnUse">
<stop stop-color="#FFFF00"/>
<stop offset="1"/>
</linearGradient>
</defs>
</svg>
