<svg width="187" height="187" viewBox="0 0 187 187" fill="none" xmlns="http://www.w3.org/2000/svg">
<g filter="url(#filter0_dd)">
<circle cx="86.1135" cy="86.1133" r="40" transform="rotate(-28.0579 86.1135 86.1133)" fill="url(#paint0_linear)"/>
</g>
<path d="M90.3952 80.7273L76.9193 90.9465L76.3578 91.2273L75.8525 91.1711L74.2241 89.5989L74.168 89.0936L74.3364 88.6444L89.3284 75H90.0583L90.3952 75.5053V80.7273Z" fill="#FF7800" stroke="#FF7800" stroke-width="0.578567"/>
<path d="M74 82.1879L74.2246 82.4686L89.2727 96.4499L89.8342 96.6745L90.3396 96.4499L90.508 96.0007V90.6103L76.639 80.1665L76.246 79.998H75.9091L75.6283 80.1665L74.1684 81.6264L74 81.9071V82.1879Z" fill="#FF8A22" stroke="#FF8A22" stroke-width="0.578567"/>
<path d="M94.8303 77.808L94.9988 78.4818L94.9426 92.9123V93.5299L94.7742 93.8668L94.4373 94.1475L90.2822 96.3935H89.833L89.6084 96.2251L89.4961 95.8882V75.8989V75.3935L89.7768 75.0566H90.2822L93.8758 77.078L94.4934 77.4149L94.8303 77.808Z" fill="#FF9639" stroke="#FF9639" stroke-width="0.578567"/>
<defs>
<filter id="filter0_dd" x="0.0681891" y="0.0681891" width="186.16" height="186.16" filterUnits="userSpaceOnUse" color-interpolation-filters="sRGB">
<feFlood flood-opacity="0" result="BackgroundImageFix"/>
<feColorMatrix in="SourceAlpha" type="matrix" values="0 0 0 0 0 0 0 0 0 0 0 0 0 0 0 0 0 0 127 0" result="hardAlpha"/>
<feOffset dx="-7.03448" dy="-7.03448"/>
<feGaussianBlur stdDeviation="11.9586"/>
<feComposite in2="hardAlpha" operator="out"/>
<feColorMatrix type="matrix" values="0 0 0 0 0.0166667 0 0 0 0 0 0 0 0 0 0 0 0 0 0.58 0"/>
<feBlend mode="normal" in2="BackgroundImageFix" result="effect1_dropShadow"/>
<feColorMatrix in="SourceAlpha" type="matrix" values="0 0 0 0 0 0 0 0 0 0 0 0 0 0 0 0 0 0 127 0" result="hardAlpha"/>
<feOffset dx="7.03448" dy="7.03448"/>
<feGaussianBlur stdDeviation="19.4831"/>
<feComposite in2="hardAlpha" operator="out"/>
<feColorMatrix type="matrix" values="0 0 0 0 1 0 0 0 0 0.470588 0 0 0 0 0 0 0 0 1 0"/>
<feBlend mode="normal" in2="effect1_dropShadow" result="effect2_dropShadow"/>
<feBlend mode="normal" in="SourceGraphic" in2="effect2_dropShadow" result="shape"/>
</filter>
<linearGradient id="paint0_linear" x1="56.9" y1="53.7537" x2="98.1414" y2="102.337" gradientUnits="userSpaceOnUse">
<stop stop-color="#FF2800"/>
<stop offset="1"/>
</linearGradient>
</defs>
</svg>
