<svg width="187" height="187" viewBox="0 0 187 187" fill="none" xmlns="http://www.w3.org/2000/svg">
<g filter="url(#filter0_dd)">
<circle cx="86.1135" cy="86.1133" r="40" transform="rotate(-28.0579 86.1135 86.1133)" fill="url(#paint0_linear)"/>
</g>
<path d="M85.6376 78.0464C85.7533 78.042 86.0061 78.0064 86.2095 78.0031C86.6161 77.9966 87.1705 77.998 87.7612 78.0299C88.3518 78.0617 88.9792 78.124 89.5318 78.2393C90.0835 78.3544 90.5641 78.5231 90.858 78.7699C92.0175 79.7435 92.9692 81.0194 93.3638 82.1813C93.561 82.7617 93.7464 83.6599 93.8825 84.551C94.0186 85.4423 94.1057 86.3286 94.1055 86.8856C94.1051 87.9157 93.4933 88.7675 93.0003 89.4539C92.9575 89.5135 92.9155 89.572 92.8749 89.6292C92.7499 89.8053 92.6756 90.0048 92.6144 90.219C92.5891 90.3076 92.5661 90.3982 92.5427 90.4907L92.5279 90.5492C92.4992 90.6618 92.4691 90.7767 92.4327 90.8924C92.2869 91.3561 92.0411 91.8299 91.3873 92.2269C90.7375 92.6215 90.2779 92.7788 89.919 92.8488C89.7397 92.8838 89.5861 92.8969 89.4474 92.907L89.4045 92.9101C89.2828 92.9188 89.1732 92.9267 89.0659 92.9471C88.863 92.9858 88.7054 93.0577 88.5344 93.1357C88.5036 93.1497 88.4724 93.1639 88.4405 93.1782C88.231 93.2717 87.9914 93.3652 87.6299 93.4101C87.2696 93.4549 86.7474 93.4548 86.3164 93.4437C86.1007 93.4381 86 93.4298 85.8607 93.4228C85.7974 93.4196 85.6973 93.4138 85.6503 93.411L85.6376 93.4103C85.5988 93.4125 85.4604 93.4193 85.3907 93.4228C85.2514 93.4298 85.0581 93.4381 84.8424 93.4437C84.4114 93.4548 83.8893 93.4549 83.5289 93.4101C83.1674 93.3652 82.9278 93.2717 82.7183 93.1782C82.6864 93.1639 82.6552 93.1497 82.6245 93.1357C82.4535 93.0577 82.2959 92.9858 82.0929 92.9471C81.9856 92.9267 81.876 92.9188 81.7543 92.9101L81.7114 92.907C81.5728 92.8969 81.4191 92.8838 81.2398 92.8488C80.8809 92.7788 80.4213 92.6215 79.7715 92.2269C79.1177 91.8299 78.8719 91.3561 78.7261 90.8924C78.6897 90.7767 78.6596 90.6618 78.6309 90.5492L78.6162 90.4913C78.5928 90.3988 78.5697 90.3076 78.5444 90.219C78.4832 90.0048 78.4089 89.8053 78.2839 89.6292C78.2433 89.572 78.2013 89.5136 78.1585 89.4539C77.6655 88.7675 77.0537 87.9157 77.0533 86.8856C77.0532 86.3286 77.1402 85.4423 77.2763 84.551C77.4124 83.6599 77.5978 82.7617 77.795 82.1813C78.1896 81.0194 79.1413 79.7435 80.3008 78.7699C80.5947 78.5231 81.0753 78.3544 81.6271 78.2393C82.1796 78.124 82.8071 78.0617 83.3976 78.0299C83.9883 77.998 84.5427 77.9966 84.9493 78.0031C85.1527 78.0064 85.522 78.042 85.6376 78.0464Z" fill="#FF7800"/>
<path d="M93.2969 86.2363C93.2969 86.2363 92.9072 87.0818 92.4177 87.3238C91.8993 87.58 90.9369 87.3238 90.9369 87.3238" stroke="#D3B494" stroke-width="0.0925488"/>
<path d="M80.0234 87.3555C80.0234 87.3555 79.1212 87.5847 78.625 87.3565C78.0996 87.1149 77.6931 86.2058 77.6931 86.2058" stroke="#D3B494" stroke-width="0.0925488"/>
<path d="M90.8288 78.8991C90.5441 78.66 90.0731 78.4932 89.5229 78.3784C88.9735 78.2637 88.3486 78.2016 87.7592 78.1699C87.17 78.1381 86.6167 78.1366 86.2108 78.1431C86.0078 78.1464 85.7535 78.182 85.6382 78.1864C85.5228 78.182 85.1521 78.1464 84.9491 78.1431C84.5432 78.1366 83.9899 78.1381 83.4006 78.1699C82.8113 78.2016 82.1864 78.2637 81.637 78.3784C81.0868 78.4932 80.6158 78.66 80.3311 78.8991C79.1762 79.8689 78.3694 81.1381 77.9781 82.29C77.7823 82.8664 77.5974 83.7614 77.4614 84.6518C77.3255 85.5421 77.3779 85.615 77.239 86.9794C77.1002 88.3437 79.5531 89.9633 79.5531 89.9633C79.5531 89.9633 79.6482 88.508 80.0158 87.6727C80.7295 86.0511 83.4006 84.6518 83.4006 84.6518C83.4006 84.6518 84.6487 83.4395 85.6382 83.4618C86.5877 83.4831 87.7592 84.6518 87.7592 84.6518C87.7592 84.6518 90.1859 86.1221 90.8585 87.6727C91.222 88.5106 91.3299 89.9633 91.3299 89.9633C91.3299 89.9633 94.1986 88.7602 93.9672 86.9794C93.9408 86.7764 93.9193 86.601 93.9017 86.4481C93.8856 86.1942 93.8598 85.9098 93.826 85.6095C93.7913 85.3017 93.7482 84.9772 93.6985 84.6518C93.5625 83.7614 93.3776 82.8664 93.1817 82.29C92.7905 81.1381 91.9837 79.8689 90.8288 78.8991Z" fill="#A74E00"/>
<path d="M86.6328 81.0312C86.6328 81.0312 86.0086 80.4042 85.4991 80.3834C84.9499 80.3609 84.2497 81.0312 84.2497 81.0312" stroke="#FF7800" stroke-width="0.0925488"/>
<path d="M93.0164 82.8346C92.9241 82.6032 91.8132 81.0762 91.8132 81.0762V81.8397C91.8132 81.8397 89.5393 80.8103 88.8286 81.8397C88.2682 82.6515 89.5777 84.2518 88.6898 84.1303C88.4886 84.1028 88.2038 83.9452 88.2038 83.9452C89.4818 84.8938 90.0956 85.487 91.0497 86.6291C91.0497 86.6291 91.9636 86.4667 92.4148 86.1201C92.878 85.7643 93.0953 85.4508 93.2709 84.8938C93.5145 84.121 93.1086 83.066 93.0164 82.8346Z" fill="#FF7800"/>
<path d="M78.0032 82.8346C78.0954 82.6032 79.2063 81.0762 79.2063 81.0762V81.8397C79.2063 81.8397 81.4803 80.8103 82.1909 81.8397C82.7513 82.6515 81.4418 84.2518 82.3297 84.1303C82.5309 84.1028 82.8157 83.9452 82.8157 83.9452C81.5377 84.8938 80.9239 85.487 79.9698 86.6291C79.9698 86.6291 79.0559 86.4667 78.6047 86.1201C78.1416 85.7643 77.9243 85.4508 77.7486 84.8938C77.505 84.121 77.9109 83.066 78.0032 82.8346Z" fill="#FF7800"/>
<path d="M90.9131 89.6844C90.9133 89.9157 90.9384 90.9246 90.7049 91.6048C90.5705 91.9963 90.4222 92.2278 90.0802 92.4609C89.642 92.7596 89.2412 92.501 88.7382 92.6691C88.3167 92.81 88.192 92.9109 87.7665 93.0393C86.8999 93.3008 86.4038 93.0668 85.499 93.0393C84.5688 93.011 84.0089 93.2552 83.1159 92.993C82.7584 92.8881 82.5002 92.7786 82.1441 92.6691C81.6713 92.5237 81.306 92.7357 80.8947 92.4609C80.5506 92.2309 80.455 92.1371 80.27 91.6048C80.0851 91.0725 80.0174 90.4418 79.9924 89.6844C79.9681 88.9509 79.9924 88.3423 80.1312 87.8103C80.27 87.2782 80.9851 86.3441 81.7971 85.6585C82.4899 85.0737 83.81 84.5017 83.81 84.5017C83.81 84.5017 84.5272 83.6688 85.499 83.6919C86.4709 83.7149 87.0724 84.5017 87.0724 84.5017C87.0724 84.5017 88.2979 84.9645 88.9465 85.4734C89.845 86.1785 90.6125 87.1855 90.7975 87.8103C90.9824 88.4351 90.913 89.4532 90.9131 89.6844Z" fill="#A74E00"/>
<path d="M89.7812 80.9171C89.7812 80.9171 87.8312 80.3609 87.375 81.1022C87.1138 81.5266 87.4675 82.3747 87.4675 82.3747C87.4675 82.3747 86.2602 81.5047 85.3852 81.5418C84.5932 81.5754 83.5342 82.3747 83.5342 82.3747C83.5342 82.3747 83.6627 81.5003 83.326 81.1022C82.8636 80.5556 81.4981 80.9171 81.4981 80.9171" stroke="#FF7800" stroke-width="0.0925488"/>
<path d="M90.7969 89.5214C90.6116 89.961 88.7609 91.6037 85.4964 91.6037C81.798 91.6037 80.9282 90.308 80.6398 90.0535C79.8531 89.3594 80.0003 88.604 80.1388 88.0711C80.2774 87.5381 80.991 86.6024 81.8015 85.9157C82.493 85.3299 83.8106 84.7569 83.8106 84.7569C83.8106 84.7569 84.5264 83.9227 85.4964 83.9458C86.4664 83.9689 87.0667 84.7569 87.0667 84.7569C87.0667 84.7569 88.2899 85.2206 88.9372 85.7303C89.8341 86.4365 90.6001 87.4452 90.7847 88.0711C90.9692 88.6969 90.9823 89.0818 90.7969 89.5214Z" fill="#FF7800"/>
<path d="M88.0664 83.6694C88.0664 83.6694 86.6205 82.5763 85.5445 82.5588C84.427 82.5406 82.9068 83.6694 82.9068 83.6694" stroke="#FF7800" stroke-width="0.0925488"/>
<path d="M86.4922 85.3359C85.7518 85.6367 85.2659 85.6367 84.4793 85.3359" stroke="#A74E00" stroke-width="0.0925488"/>
<path d="M85.4769 87.7644L85.5 85.5664" stroke="#A74E00" stroke-width="0.0925488"/>
<path d="M87.6484 90.1011C87.6484 90.1011 86.7071 87.8105 85.4735 87.8105C84.24 87.8105 83.2986 90.1011 83.2986 90.1011" stroke="#A74E00" stroke-width="0.0925488"/>
<circle r="0.16196" transform="matrix(0.720735 -0.693211 -0.693211 -0.720735 82.817 87.4976)" fill="#A74E00"/>
<circle r="0.16196" transform="matrix(-1 0 0 1 88.3459 87.5799)" fill="#A74E00"/>
<circle r="0.16196" transform="matrix(-1 0 0 1 88.6701 86.6522)" fill="#A74E00"/>
<circle r="0.16196" transform="matrix(-1 0 0 1 87.4669 86.6522)" fill="#A74E00"/>
<circle r="0.16196" transform="matrix(0.720735 -0.693211 -0.693211 -0.720735 82.4107 86.605)" fill="#A74E00"/>
<circle r="0.16196" transform="matrix(0.720735 -0.693211 -0.693211 -0.720735 83.6841 86.6636)" fill="#A74E00"/>
<path d="M94.1524 79.2486C95.6794 80.0586 98.109 82.9508 98.1551 83.2513C98.2012 83.5518 96.8195 84.2475 96.2116 85.1717C95.6304 86.0553 95.6334 86.7684 95.101 87.4391C94.5686 88.1099 94.2449 87.7633 94.1987 87.3929C94.1524 87.0224 93.8308 83.8063 93.3194 82.1407C92.8081 80.4751 90.6587 78.6474 90.5661 78.4619C90.4736 78.2764 92.6253 78.4385 94.1524 79.2486Z" fill="#FF7800"/>
<path d="M77.0039 79.2486C75.4768 80.0586 73.0472 82.9508 73.0011 83.2513C72.955 83.5518 74.3367 84.2475 74.9447 85.1717C75.5259 86.0553 75.5229 86.7684 76.0552 87.4391C76.5876 88.1099 76.9113 87.7633 76.9576 87.3929C77.0039 87.0224 77.3255 83.8063 77.8368 82.1407C78.3481 80.4751 80.4976 78.6474 80.5901 78.4619C80.6827 78.2764 78.5309 78.4385 77.0039 79.2486Z" fill="#FF7800"/>
<path d="M75.9913 87.0457C76.0607 83.2975 78.6289 79.7344 78.6289 79.7344C78.6289 79.7344 75.4822 82.9967 75.0658 85.1253C75.0658 85.1253 75.4591 85.7269 75.5285 86.0046C75.5979 86.2822 75.9913 87.0457 75.9913 87.0457Z" fill="#A74E00"/>
<path d="M95.2861 86.9539C95.2167 83.2057 92.6484 79.6426 92.6484 79.6426C92.6484 79.6426 95.7951 82.9049 96.2116 85.0335C96.2116 85.0335 95.8182 85.6351 95.7488 85.9128C95.6794 86.1904 95.2861 86.9539 95.2861 86.9539Z" fill="#A74E00"/>
<circle r="1.73529" transform="matrix(-0.529919 -0.848048 -0.848048 0.529919 80.1557 84.198)" fill="#C55F05"/>
<circle r="0.485881" transform="matrix(-0.529919 -0.848048 -0.848048 0.529919 80.5141 83.3728)" fill="#A74E00"/>
<circle r="1.73529" transform="matrix(-1 0 0 1 90.796 84.2021)" fill="#C55F05"/>
<circle r="0.485881" transform="matrix(-1 0 0 1 90.2876 83.4624)" fill="#A74E00"/>
<ellipse rx="0.185098" ry="0.347058" transform="matrix(-0.965926 0.258819 0.258819 0.965926 85.9735 84.932)" fill="#A74E00"/>
<ellipse rx="0.185098" ry="0.347058" transform="matrix(-0.965926 -0.258819 -0.258819 0.965926 85.0908 84.9299)" fill="#A74E00"/>
<defs>
<filter id="filter0_dd" x="0.0681891" y="0.0681891" width="186.16" height="186.16" filterUnits="userSpaceOnUse" color-interpolation-filters="sRGB">
<feFlood flood-opacity="0" result="BackgroundImageFix"/>
<feColorMatrix in="SourceAlpha" type="matrix" values="0 0 0 0 0 0 0 0 0 0 0 0 0 0 0 0 0 0 127 0" result="hardAlpha"/>
<feOffset dx="-7.03448" dy="-7.03448"/>
<feGaussianBlur stdDeviation="11.9586"/>
<feComposite in2="hardAlpha" operator="out"/>
<feColorMatrix type="matrix" values="0 0 0 0 0.0166667 0 0 0 0 0 0 0 0 0 0 0 0 0 0.58 0"/>
<feBlend mode="normal" in2="BackgroundImageFix" result="effect1_dropShadow"/>
<feColorMatrix in="SourceAlpha" type="matrix" values="0 0 0 0 0 0 0 0 0 0 0 0 0 0 0 0 0 0 127 0" result="hardAlpha"/>
<feOffset dx="7.03448" dy="7.03448"/>
<feGaussianBlur stdDeviation="19.4831"/>
<feComposite in2="hardAlpha" operator="out"/>
<feColorMatrix type="matrix" values="0 0 0 0 1 0 0 0 0 0.470588 0 0 0 0 0 0 0 0 1 0"/>
<feBlend mode="normal" in2="effect1_dropShadow" result="effect2_dropShadow"/>
<feBlend mode="normal" in="SourceGraphic" in2="effect2_dropShadow" result="shape"/>
</filter>
<linearGradient id="paint0_linear" x1="56.9" y1="53.7537" x2="98.1414" y2="102.337" gradientUnits="userSpaceOnUse">
<stop stop-color="#FF3800"/>
<stop offset="1"/>
</linearGradient>
</defs>
</svg>
