<svg width="187" height="187" viewBox="0 0 187 187" fill="none" xmlns="http://www.w3.org/2000/svg">
<g filter="url(#filter0_dd)">
<circle cx="86.1135" cy="86.1133" r="40" transform="rotate(-28.0579 86.1135 86.1133)" fill="url(#paint0_linear)"/>
</g>
<path d="M93.4928 90.5511L93.9268 90.1172L93.9991 90.3342V90.6958L93.9268 91.1298L93.7098 91.5637L93.4205 91.9254L93.0588 92.1423L92.7695 92.2147V91.853L92.9142 91.4914L93.2035 90.9851L93.4928 90.5511Z" stroke="#FF7800" stroke-width="0.489362"/>
<path d="M78.4497 84.1855L78.1604 83.6069V83.3899L78.4497 83.4623L79.1006 83.9686L79.9686 84.1855L81.1258 84.2579L82.5 84.1855L83.8019 83.9686L85.1761 83.4623L86.3333 82.739L87.3459 81.7264L88.1415 80.7862L88.5031 80.0629L88.7925 79.195V78.4717L88.4308 77.8208L87.9245 77.2421L87.2013 77.0252L86.3333 76.8805L85.3931 76.8082L84.3082 76.8805L83.0063 77.0252L81.8491 77.3868L80.6195 77.8208L79.1006 78.4717L77.7987 79.195L76.6415 79.9182L75.4843 80.7862L74.2547 82.1604L73.6038 83.0283L73.3145 83.8239V84.6195L73.5314 85.7044L74.544 87.0063L78.2327 90.044L81.2704 88.3805L81.7767 87.6572L82.3553 87.1509L83.2233 86.717L83.9465 86.5723L84.5975 86.8616L84.9591 87.4403V88.5975L85.3208 88.3805L85.827 88.5252L85.9717 88.9591L85.827 89.3208L85.0314 92.0692V92.9371H85.1761L87.7799 87.3679L88.1415 86.3553L88.2862 85.9214L88.4308 85.5597L88.7925 85.4151H89.4434H90.022L90.1667 85.7767L90.022 86.283L89.805 86.8616V87.6572L89.9497 88.5252L90.3113 89.3208L91.5409 87.0063L91.9025 86.3553L92.3365 85.6321L92.4811 84.8365L92.7704 84.6195L93.1321 84.4025H93.783H94.1447L94.434 84.6195V84.9811L94.1447 85.6321L94 86.3553V87.1509V87.6572L94.434 88.2358L94.7233 88.8145L95.2296 88.5252L95.9528 88.3805L96.8208 88.2358H97.544H98.4119L99.2799 88.3805L100.075 88.8145L100.799 89.3208L101.305 89.8994L101.594 90.6226L101.739 91.4182L101.594 92.2138L101.088 92.9371L100.654 93.2987L100.292 93.4434L100.075 93.2987L100.292 93.0818L100.654 92.7201L101.016 92.4308L101.088 91.7799L101.016 91.0566L100.654 90.4057L100.075 89.8994L99.1352 89.4654L98.2673 89.3208L96.8208 89.1761H95.6635L94.9403 89.6101L95.1572 90.1887L95.2296 90.6226L95.1572 91.4182L94.5786 92.2138L94 92.7201L93.1321 93.0818L92.4811 93.2987L91.9025 93.0818L91.6855 92.7201V92.2138L92.0472 91.2013L92.6258 90.4057L93.566 89.4654L93.2767 89.1761L92.9874 88.5252L92.7704 87.9465L92.6258 87.1509L90.8176 90.1887L90.9623 90.4057L91.1069 91.0566V91.8522L90.9623 92.5755L90.456 93.2987L89.805 93.805L89.1541 94.0943L88.3585 94.239H87.6352L87.2013 94.0943L87.1289 93.7327L87.3459 93.2987L89.4434 90.6226L89.0818 89.8994L88.7925 89.4654L88.6478 88.9591L88.5031 88.0912L85.5377 94.1667L85.3208 94.456L84.8145 94.673L84.1635 94.456L83.8019 94.0943V93.2987V92.2138L83.2233 93.5881L82.8616 94.456L82.3553 94.9623L81.7767 95.1792L81.1258 94.9623L80.7642 94.456L80.4025 93.805L80.1855 92.9371V91.7799V90.8396L80.4025 89.9717L78.8113 90.9843L79.1006 91.5629V92.4308V93.2987L78.8113 94.456L78.1604 95.7579L77.6541 96.5535L76.7138 97.2767L75.3396 97.783L74.1101 98L73.2421 97.783L72.5189 97.2767L72.0849 96.2642V95.3239L72.5189 94.0943L73.5314 92.9371L75.1226 91.7799L77.0031 90.6226L75.1226 89.2484L73.7484 88.1635L72.5189 87.0786L71.7956 86.283L71.3616 85.4874L71.0723 84.9088L71 84.2579L71.0723 83.4623L71.6509 82.1604L72.9528 80.4245L74.6887 78.9057L77.0031 77.3868L79.1006 76.4465L80.9088 75.6509L82.2107 75.2893L83.5849 75H84.8145H85.827L87.1289 75.1447L88.0692 75.434L89.0094 75.9403L89.6604 76.4465L90.0943 77.1698L90.3113 78.1101V78.9057V79.6289L90.0943 80.4245L89.6604 81.2925L89.0094 82.1604L88.2862 82.956L87.3459 83.8239L86.1887 84.4025L84.8145 84.9088L83.2233 85.3428L81.8491 85.4874L80.4025 85.3428L79.3176 84.9088L78.4497 84.1855Z" stroke="#FF7800" stroke-width="0.489362"/>
<path d="M84.0899 88.5241L83.2943 90.7663L82.6434 92.3574L82.3541 93.0084L81.9924 93.2977L81.7031 93.0084V92.6468V91.9958V91.1279L81.9924 89.9707L82.3541 89.1751L82.8604 88.3795L83.2943 87.8732L83.8006 87.7285H84.0899V88.1625V88.5241Z" stroke="#FF7800" stroke-width="0.489362"/>
<path d="M76.209 92.2859L77.8002 91.418L77.9448 91.9966V92.9368L77.6555 94.0217L76.9323 94.962L76.209 95.7576L75.1241 96.1916H74.4008L74.0392 95.9022L73.8945 95.2513L74.0392 94.4557L74.9071 93.2985L76.209 92.2859Z" stroke="#FF7800" stroke-width="0.489362"/>
<path d="M88.3594 93.1537L89.8059 91.5625V91.8518L89.6613 92.2858L89.372 92.7197L88.938 93.0814L88.504 93.2983H88.3594V93.1537Z" stroke="#FF7800" stroke-width="0.489362"/>
<defs>
<filter id="filter0_dd" x="0.0681891" y="0.0681891" width="186.16" height="186.16" filterUnits="userSpaceOnUse" color-interpolation-filters="sRGB">
<feFlood flood-opacity="0" result="BackgroundImageFix"/>
<feColorMatrix in="SourceAlpha" type="matrix" values="0 0 0 0 0 0 0 0 0 0 0 0 0 0 0 0 0 0 127 0" result="hardAlpha"/>
<feOffset dx="-7.03448" dy="-7.03448"/>
<feGaussianBlur stdDeviation="11.9586"/>
<feComposite in2="hardAlpha" operator="out"/>
<feColorMatrix type="matrix" values="0 0 0 0 0.0166667 0 0 0 0 0 0 0 0 0 0 0 0 0 0.58 0"/>
<feBlend mode="normal" in2="BackgroundImageFix" result="effect1_dropShadow"/>
<feColorMatrix in="SourceAlpha" type="matrix" values="0 0 0 0 0 0 0 0 0 0 0 0 0 0 0 0 0 0 127 0" result="hardAlpha"/>
<feOffset dx="7.03448" dy="7.03448"/>
<feGaussianBlur stdDeviation="19.4831"/>
<feComposite in2="hardAlpha" operator="out"/>
<feColorMatrix type="matrix" values="0 0 0 0 1 0 0 0 0 0.470588 0 0 0 0 0 0 0 0 1 0"/>
<feBlend mode="normal" in2="effect1_dropShadow" result="effect2_dropShadow"/>
<feBlend mode="normal" in="SourceGraphic" in2="effect2_dropShadow" result="shape"/>
</filter>
<linearGradient id="paint0_linear" x1="56.9" y1="53.7537" x2="98.1414" y2="102.337" gradientUnits="userSpaceOnUse">
<stop stop-color="#FF4800"/>
<stop offset="1"/>
</linearGradient>
</defs>
</svg>
