<svg width="380" height="380" viewBox="0 0 380 380" fill="none" xmlns="http://www.w3.org/2000/svg">
<path d="M189.78 0.737743C139.886 0.729033 92.0096 20.4366 56.5805 55.5674C21.1514 90.6983 1.03976 138.406 0.626647 188.298C0.213532 238.19 19.5324 286.224 54.3749 321.937C89.2175 357.65 136.761 378.148 186.648 378.965C236.535 379.783 284.724 360.854 320.718 326.302C356.712 291.75 377.594 244.374 378.816 194.495C380.038 144.617 361.5 96.2755 327.241 60.0027C292.982 23.7299 245.778 2.46426 195.91 0.838205L194.863 32.9537C236.258 34.3035 275.442 51.9561 303.881 82.0662C332.319 112.176 347.707 152.304 346.693 193.709C345.679 235.113 328.345 274.439 298.466 303.121C268.587 331.803 228.586 347.515 187.174 346.837C145.763 346.158 106.297 329.143 77.3746 299.498C48.4518 269.853 32.4152 229.98 32.7581 188.564C33.101 147.149 49.7957 107.547 79.2054 78.3844C108.615 49.2223 148.357 32.8631 189.774 32.8703L189.78 0.737743Z" fill="white"/>
<path d="M1.06855 183.231C0.651471 195.115 1.35621 207.013 3.17347 218.765L34.9146 213.857C33.4059 204.101 32.8208 194.224 33.1671 184.357L1.06855 183.231Z" fill="#FF7800"/>
<path d="M6.57804 144.078C3.69911 155.616 1.91482 167.401 1.24893 179.274L33.3169 181.072C33.8697 171.215 35.3509 161.433 37.7409 151.854L6.57804 144.078Z" fill="#FF7800"/>
<path d="M20.1074 106.927C14.8924 117.614 10.6971 128.77 7.57716 140.245L38.5704 148.672C41.1605 139.145 44.6433 129.884 48.9727 121.012L20.1074 106.927Z" fill="#FF7800"/>
<path d="M41.0653 73.4003C33.7422 82.77 27.3192 92.8095 21.8816 103.385L50.4456 118.072C54.9597 109.292 60.292 100.957 66.3714 93.1787L41.0653 73.4003Z" fill="#FF7800"/>
<path d="M68.5358 44.9637C59.4247 52.6061 51.0547 61.0908 43.537 70.3051L68.4233 90.6091C74.6643 82.9597 81.6129 75.9159 89.1767 69.5713L68.5358 44.9637Z" fill="#FF7800"/>
<path d="M379.091 183.297C378.678 171.412 377.145 159.593 374.512 147.996L343.195 155.105C345.381 164.733 346.654 174.545 346.997 184.412L379.091 183.297Z" fill="#FF7800"/>
<path d="M376.326 222.738C378.393 211.027 379.351 199.147 379.187 187.256L347.072 187.699C347.208 197.571 346.413 207.433 344.697 217.155L376.326 222.738Z" fill="#FF7800"/>
<path d="M365.421 260.743C369.878 249.717 373.285 238.296 375.597 226.631L344.091 220.387C342.172 230.071 339.343 239.553 335.644 248.706L365.421 260.743Z" fill="#FF7800"/>
<path d="M346.853 295.65C353.505 285.792 359.212 275.329 363.898 264.399L334.379 251.741C330.489 260.815 325.751 269.501 320.229 277.685L346.853 295.65Z" fill="#FF7800"/>
<path d="M321.433 325.933C329.989 317.674 337.747 308.626 344.603 298.91L318.361 280.391C312.669 288.457 306.229 295.969 299.126 302.825L321.433 325.933Z" fill="#FF7800"/>
<path d="M290.272 350.27C300.358 343.97 309.828 336.733 318.555 328.654L296.736 305.084C289.491 311.791 281.63 317.799 273.257 323.029L290.272 350.27Z" fill="#FF7800"/>
<path d="M254.733 367.596C265.908 363.531 276.675 358.42 286.891 352.333L270.45 324.742C261.969 329.795 253.03 334.038 243.753 337.413L254.733 367.596Z" fill="#FF7800"/>
<path d="M181.69 13.2602C135.762 15.4929 92.5084 35.5183 61.0919 69.0938C29.6755 102.669 12.5648 147.157 13.3851 193.131C14.2054 239.105 32.8923 282.954 65.4866 315.388C98.0808 347.821 142.022 366.291 187.999 366.883C233.977 367.476 278.38 350.146 311.799 318.563C345.219 286.981 365.03 243.629 367.035 197.691C369.04 151.753 353.082 106.839 322.542 72.4646C292.002 38.0903 249.278 16.9564 203.424 13.5404L202.791 22.0354C246.438 25.2869 287.104 45.4033 316.174 78.1225C345.244 110.842 360.434 153.593 358.525 197.319C356.616 241.045 337.759 282.31 305.948 312.372C274.138 342.434 231.873 358.93 188.109 358.366C144.345 357.801 102.52 340.221 71.4951 309.349C40.4702 278.478 22.6831 236.74 21.9023 192.979C21.1215 149.218 37.4083 106.873 67.3121 74.914C97.2159 42.9551 138.387 23.8938 182.103 21.7687L181.69 13.2602Z" fill="black"/>
<path d="M366.235 171.447C365.957 168.806 365.62 166.172 365.223 163.547L357.011 164.787C357.389 167.289 357.711 169.8 357.976 172.316L366.235 171.447Z" fill="white"/>
<path d="M365.109 167.436C365.186 167.959 365.166 168.425 365.05 168.835C364.935 169.25 364.732 169.585 364.441 169.839C364.149 170.092 363.783 170.252 363.341 170.316C362.904 170.38 362.507 170.333 362.15 170.174C361.798 170.014 361.508 169.752 361.278 169.387C361.05 169.027 360.897 168.586 360.821 168.064L360.622 166.703L358.882 166.957L358.718 165.838L364.747 164.956L365.109 167.436ZM361.76 167.873C361.832 168.361 361.989 168.717 362.233 168.939C362.477 169.161 362.791 169.244 363.176 169.188C363.56 169.132 363.837 168.962 364.007 168.679C364.177 168.397 364.226 168.011 364.155 167.523L363.963 166.214L361.569 166.564L361.76 167.873Z" fill="black"/>
<path d="M366.236 208.521C366.515 205.881 366.733 203.234 366.893 200.584L358.606 200.086C358.454 202.612 358.245 205.134 357.98 207.651L366.236 208.521Z" fill="white"/>
<path d="M362.002 204.801L359.86 204.616L359.957 203.488L362.082 203.672L366.234 201.629L366.129 202.834L363.019 204.356L365.82 206.407L365.724 207.517L362.002 204.801Z" fill="black"/>
<path d="M358.597 244.481C359.415 241.955 360.176 239.41 360.88 236.85L352.886 234.654C352.215 237.094 351.49 239.519 350.71 241.926L358.597 244.481Z" fill="white"/>
<path d="M358.403 239.665L358.985 237.731L359.902 238.007L358.413 242.958L357.496 242.682L358.078 240.748L353.16 239.27L353.486 238.186L358.403 239.665Z" fill="black"/>
<path d="M343.505 278.424C344.833 276.124 346.108 273.795 347.331 271.438L339.958 267.614C338.792 269.86 337.577 272.08 336.312 274.271L343.505 278.424Z" fill="white"/>
<path d="M339.979 273.774L341.436 271.099L340.486 269.897L341.044 268.873L345.082 274.195L344.549 275.174L337.883 274.674L338.449 273.634L339.979 273.774ZM340.938 273.87L343.826 274.136L342.033 271.86L340.938 273.87Z" fill="black"/>
<path d="M321.742 308.376C323.519 306.403 325.251 304.39 326.938 302.339L320.532 297.072C318.925 299.027 317.274 300.945 315.58 302.826L321.742 308.376Z" fill="white"/>
<path d="M325.354 303.282L324.617 304.141L320.722 300.794L318.646 303.211L317.92 302.587L320.733 299.312L325.354 303.282Z" fill="black"/>
<path d="M294.309 333.079C296.457 331.518 298.569 329.908 300.644 328.252L295.464 321.762C293.486 323.34 291.473 324.874 289.426 326.362L294.309 333.079Z" fill="white"/>
<path d="M292.2 327.506L291.62 326.755L295.236 323.962L298.96 328.784L295.44 331.502L294.86 330.751L297.485 328.724L296.517 327.471L294.188 329.269L293.619 328.532L295.947 326.734L294.921 325.404L292.2 327.506Z" fill="black"/>
<path d="M262.367 351.542C264.792 350.46 267.192 349.324 269.566 348.134L265.843 340.707C263.581 341.841 261.293 342.924 258.982 343.955L262.367 351.542Z" fill="white"/>
<path d="M262.809 350.713L262.594 344.07L263.6 343.593L268.619 347.954L267.511 348.481L263.663 345.104L263.831 350.227L262.809 350.713Z" fill="black"/>
<path d="M13.4668 196.203C13.5603 198.856 13.7135 201.507 13.9264 204.154L22.2022 203.488C21.9994 200.966 21.8533 198.439 21.7642 195.91L13.4668 196.203Z" fill="white"/>
<path d="M20.299 198.429L18.59 199.775C18.5988 199.827 18.6062 199.905 18.6123 200.009L18.6922 201.382L20.4647 201.279L20.5304 202.408L14.4481 202.762L14.3025 200.26C14.2719 199.733 14.3321 199.27 14.4833 198.872C14.6342 198.468 14.8658 198.152 15.178 197.924C15.4903 197.697 15.8695 197.57 16.3155 197.544C16.7731 197.518 17.1736 197.608 17.5169 197.815C17.8599 198.016 18.1246 198.32 18.3111 198.727L20.2282 197.212L20.299 198.429ZM16.3817 198.683C15.9936 198.705 15.7027 198.85 15.509 199.117C15.3153 199.384 15.2327 199.764 15.2614 200.256L15.3382 201.577L17.7624 201.436L17.6856 200.115C17.657 199.623 17.531 199.255 17.3076 199.012C17.0785 198.77 16.7698 198.66 16.3817 198.683Z" fill="black"/>
<path d="M16.103 158.92C15.607 161.703 15.1777 164.497 14.8155 167.3L23.0463 168.363C23.3915 165.692 23.8006 163.029 24.2734 160.377L16.103 158.92Z" fill="white"/>
<path d="M22.0334 164.125C21.9402 164.739 21.7241 165.272 21.3852 165.725C21.0406 166.178 20.6118 166.509 20.0986 166.718C19.5798 166.927 19.0278 166.987 18.4427 166.898C17.8575 166.809 17.3511 166.588 16.9234 166.236C16.49 165.882 16.1788 165.439 15.9899 164.905C15.7953 164.371 15.7446 163.797 15.8379 163.183C15.9311 162.569 16.1501 162.036 16.4947 161.584C16.8335 161.131 17.2595 160.799 17.7727 160.59C18.2858 160.38 18.8378 160.32 19.4287 160.41C20.0195 160.5 20.5288 160.721 20.9565 161.073C21.3842 161.426 21.6953 161.869 21.89 162.404C22.0789 162.937 22.1267 163.511 22.0334 164.125ZM21.0525 163.976C21.1135 163.574 21.0795 163.199 20.9505 162.851C20.8157 162.502 20.6017 162.211 20.3083 161.979C20.0092 161.745 19.6589 161.598 19.2573 161.537C18.8558 161.476 18.4804 161.513 18.1313 161.648C17.7764 161.782 17.4856 161.996 17.259 162.29C17.0266 162.583 16.8799 162.931 16.8188 163.332C16.7578 163.734 16.7947 164.109 16.9294 164.458C17.0584 164.807 17.2725 165.097 17.5716 165.331C17.8649 165.563 18.2124 165.71 18.614 165.771C19.0155 165.832 19.3938 165.795 19.7486 165.662C20.0978 165.527 20.3886 165.313 20.621 165.019C20.8476 164.725 20.9914 164.377 21.0525 163.976Z" fill="black"/>
<path d="M26.4037 123.29C25.2656 126.087 24.1994 128.913 23.2059 131.764L31.0341 134.491C31.981 131.774 32.9974 129.08 34.0821 126.414L26.4037 123.29Z" fill="white"/>
<path d="M31.8466 127.786L28.0639 126.372L30.4867 129.422L30.3089 129.895L26.5246 130.609L30.2554 132.014L29.8753 133.024L24.1731 130.878L24.5012 130.006L29.1332 129.164L26.1905 125.518L26.5185 124.646L32.2237 126.784L31.8466 127.786Z" fill="black"/>
<path d="M43.6136 91.0227C42.1287 93.2238 40.6935 95.458 39.3091 97.7237L46.392 102.052C47.7114 99.8921 49.0793 97.7627 50.4946 95.6649L43.6136 91.0227Z" fill="white"/>
<path d="M46.6918 95.9906L45.0474 98.5549L45.9101 99.8216L45.2805 100.803L41.6318 95.2066L42.2332 94.2687L48.8466 95.2425L48.2076 96.2389L46.6918 95.9906ZM45.7425 95.8264L42.8803 95.3558L44.5068 97.7533L45.7425 95.8264Z" fill="black"/>
<path d="M67.3963 62.6862C65.4861 64.5304 63.6177 66.4173 61.7924 68.3456L67.8188 74.0501C69.5584 72.2123 71.3392 70.4138 73.1598 68.6561L67.3963 62.6862Z" fill="white"/>
<path d="M66.9114 64.0484L71.2381 68.338L70.5824 68.9994L65.2872 68.4806L68.217 71.3852L67.4265 72.1825L63.0998 67.893L63.7555 67.2316L69.0507 67.7504L66.1209 64.8458L66.9114 64.0484Z" fill="black"/>
</svg>
