<svg width="526" height="118" viewBox="0 0 526 118" fill="none" xmlns="http://www.w3.org/2000/svg">
<path d="M51.18 117.89C41.66 117.89 32.28 116.84 23.04 114.74C13.8 112.5 6.38 109.63 0.78 106.13L12.75 78.83C17.93 82.05 24.09 84.64 31.23 86.6C38.37 88.42 45.44 89.33 52.44 89.33C58.88 89.33 63.43 88.7 66.09 87.44C68.89 86.04 70.29 84.08 70.29 81.56C70.29 79.04 68.61 77.29 65.25 76.31C62.03 75.19 56.85 74.14 49.71 73.16C40.61 72.04 32.84 70.57 26.4 68.75C20.1 66.93 14.64 63.57 10.02 58.67C5.4 53.77 3.09 46.91 3.09 38.09C3.09 30.81 5.26 24.37 9.6 18.77C13.94 13.03 20.24 8.55 28.5 5.33C36.9 1.97 46.91 0.29 58.53 0.29C66.79 0.29 74.98 1.13 83.1 2.80999C91.22 4.49 98.01 6.87 103.47 9.95L91.5 37.04C81.42 31.44 70.5 28.64 58.74 28.64C52.44 28.64 47.82 29.41 44.88 30.95C41.94 32.35 40.47 34.24 40.47 36.62C40.47 39.28 42.08 41.17 45.3 42.29C48.52 43.27 53.84 44.32 61.26 45.44C70.64 46.84 78.41 48.45 84.57 50.27C90.73 52.09 96.05 55.45 100.53 60.35C105.15 65.11 107.46 71.83 107.46 80.51C107.46 87.65 105.29 94.09 100.95 99.83C96.61 105.43 90.17 109.84 81.63 113.06C73.23 116.28 63.08 117.89 51.18 117.89ZM181.774 117.89C169.594 117.89 158.604 115.37 148.804 110.33C139.004 105.29 131.304 98.29 125.704 89.33C120.244 80.37 117.514 70.22 117.514 58.88C117.514 47.68 120.244 37.6 125.704 28.64C131.304 19.68 138.934 12.75 148.594 7.84999C158.394 2.81 169.454 0.29 181.774 0.29C194.094 0.29 205.154 2.81 214.954 7.84999C224.754 12.75 232.384 19.68 237.844 28.64C243.304 37.46 246.034 47.54 246.034 58.88C246.034 70.22 243.304 80.37 237.844 89.33C232.384 98.29 224.754 105.29 214.954 110.33C205.154 115.37 194.094 117.89 181.774 117.89ZM181.774 86.18C188.774 86.18 194.514 83.8 198.994 79.04C203.474 74.14 205.714 67.42 205.714 58.88C205.714 50.48 203.474 43.9 198.994 39.14C194.514 34.38 188.774 32 181.774 32C174.774 32 169.034 34.38 164.554 39.14C160.074 43.9 157.834 50.48 157.834 58.88C157.834 67.42 160.074 74.14 164.554 79.04C169.034 83.8 174.774 86.18 181.774 86.18ZM321.637 117.89C309.457 117.89 298.467 115.37 288.667 110.33C278.867 105.29 271.167 98.29 265.567 89.33C260.107 80.37 257.377 70.22 257.377 58.88C257.377 47.68 260.107 37.6 265.567 28.64C271.167 19.68 278.797 12.75 288.457 7.84999C298.257 2.81 309.317 0.29 321.637 0.29C333.957 0.29 345.017 2.81 354.817 7.84999C364.617 12.75 372.247 19.68 377.707 28.64C383.167 37.46 385.897 47.54 385.897 58.88C385.897 70.22 383.167 80.37 377.707 89.33C372.247 98.29 364.617 105.29 354.817 110.33C345.017 115.37 333.957 117.89 321.637 117.89ZM321.637 86.18C328.637 86.18 334.377 83.8 338.857 79.04C343.337 74.14 345.577 67.42 345.577 58.88C345.577 50.48 343.337 43.9 338.857 39.14C334.377 34.38 328.637 32 321.637 32C314.637 32 308.897 34.38 304.417 39.14C299.937 43.9 297.697 50.48 297.697 58.88C297.697 67.42 299.937 74.14 304.417 79.04C308.897 83.8 314.637 86.18 321.637 86.18ZM478.51 0.29C492.65 0.29 503.99 4.49 512.53 12.89C521.21 21.29 525.55 33.96 525.55 50.9V116H485.65V57.41C485.65 41.87 479.42 34.1 466.96 34.1C460.1 34.1 454.57 36.34 450.37 40.82C446.31 45.3 444.28 52.02 444.28 60.98V116H404.38V2.17999H442.39V14.57C446.87 9.94999 452.19 6.44999 458.35 4.06999C464.51 1.55 471.23 0.29 478.51 0.29Z" fill="white"/>
</svg>
