<svg width="526" height="59" viewBox="0 0 526 59" fill="none" xmlns="http://www.w3.org/2000/svg">
<path fill-rule="evenodd" clip-rule="evenodd" d="M10.3347 0C14.8873 4.72115 20.2424 7.97115 26.4 9.75C32.84 11.57 40.61 13.04 49.71 14.16C56.85 15.14 62.03 16.19 65.25 17.31C68.61 18.29 70.29 20.04 70.29 22.56C70.29 25.08 68.89 27.04 66.09 28.44C63.43 29.7 58.88 30.33 52.44 30.33C45.44 30.33 38.37 29.42 31.23 27.6C24.09 25.64 17.93 23.05 12.75 19.83L0.78 47.13C6.38 50.63 13.8 53.5 23.04 55.74C32.28 57.84 41.66 58.89 51.18 58.89C63.08 58.89 73.23 57.28 81.63 54.06C90.17 50.84 96.61 46.43 100.95 40.83C105.29 35.09 107.46 28.65 107.46 21.51C107.46 12.83 105.15 6.11 100.53 1.35C100.106 0.886201 99.6744 0.436202 99.2353 0H10.3347ZM117.514 0C117.533 11.2916 120.263 21.4016 125.704 30.33C131.304 39.29 139.004 46.29 148.804 51.33C158.604 56.37 169.594 58.89 181.774 58.89C194.094 58.89 205.154 56.37 214.954 51.33C224.754 46.29 232.384 39.29 237.844 30.33C243.284 21.4016 246.014 11.2916 246.034 0H205.714C205.693 8.48297 203.453 15.163 198.994 20.04C194.514 24.8 188.774 27.18 181.774 27.18C174.774 27.18 169.034 24.8 164.554 20.04C160.095 15.163 157.855 8.48297 157.834 0H117.514ZM257.377 0C257.396 11.2916 260.126 21.4016 265.567 30.33C271.167 39.29 278.867 46.29 288.667 51.33C298.467 56.37 309.457 58.89 321.637 58.89C333.957 58.89 345.017 56.37 354.817 51.33C364.617 46.29 372.247 39.29 377.707 30.33C383.148 21.4016 385.878 11.2916 385.897 0H345.577C345.556 8.48297 343.316 15.163 338.857 20.04C334.377 24.8 328.637 27.18 321.637 27.18C314.637 27.18 308.897 24.8 304.417 20.04C299.958 15.163 297.718 8.48297 297.697 0H257.377ZM404.38 0V57H444.28V1.97999C444.28 1.30737 444.292 0.647375 444.315 0H404.38ZM485.65 0V57H525.55V0H485.65Z" fill="white"/>
</svg>
