<svg width="1440" height="900" viewBox="0 0 1440 900" fill="none" xmlns="http://www.w3.org/2000/svg">
<ellipse rx="0.631083" ry="0.542675" transform="matrix(0.127397 0.991852 -0.984831 0.173515 1069.64 365.322)" fill="#C4C4C4"/>
<ellipse rx="0.631083" ry="0.542675" transform="matrix(0.127397 0.991852 -0.984831 0.173515 1385.26 559.013)" fill="#C4C4C4"/>
<ellipse rx="1.3208" ry="1.49339" transform="matrix(0.127397 0.991852 -0.984831 0.173515 1372.53 602.905)" fill="#C4C4C4"/>
<ellipse rx="0.631083" ry="0.542675" transform="matrix(0.127397 0.991852 -0.984831 0.173515 1360.41 588.13)" fill="#C4C4C4"/>
<ellipse rx="0.880534" ry="0.995596" transform="matrix(0.127397 0.991852 -0.984831 0.173515 1383.77 588.456)" fill="#C4C4C4"/>
<ellipse rx="0.631083" ry="0.542675" transform="matrix(0.127397 0.991852 -0.984831 0.173515 1232.85 496.978)" fill="#C4C4C4"/>
<ellipse rx="0.631083" ry="0.542675" transform="matrix(0.127397 0.991852 -0.984831 0.173515 1278.09 364.474)" fill="#C4C4C4"/>
<ellipse rx="0.631083" ry="0.542675" transform="matrix(0.127397 0.991852 -0.984831 0.173515 1313.93 470.4)" fill="#C4C4C4"/>
<ellipse rx="0.631083" ry="0.542675" transform="matrix(0.127397 0.991852 -0.984831 0.173515 1231.78 646.365)" fill="#C4C4C4"/>
<ellipse rx="0.631083" ry="0.542675" transform="matrix(0.127397 0.991852 -0.984831 0.173515 1383.1 621.044)" fill="#C4C4C4"/>
<ellipse rx="0.631083" ry="0.542675" transform="matrix(0.127397 0.991852 -0.984831 0.173515 1117.2 303.294)" fill="#C4C4C4"/>
<ellipse rx="0.880534" ry="0.995596" transform="matrix(0.127397 0.991852 -0.984831 0.173515 1329.73 488.445)" fill="#C4C4C4"/>
<ellipse rx="0.631083" ry="0.542675" transform="matrix(0.127397 0.991852 -0.984831 0.173515 1339.87 332.404)" fill="#C4C4C4"/>
<ellipse rx="0.631083" ry="0.542675" transform="matrix(0.127397 0.991852 -0.984831 0.173515 1429.84 363.876)" fill="#C4C4C4"/>
<ellipse rx="0.631083" ry="0.542675" transform="matrix(0.127397 0.991852 -0.984831 0.173515 1416.09 341.978)" fill="#C4C4C4"/>
<ellipse rx="0.631083" ry="0.542675" transform="matrix(0.127397 0.991852 -0.984831 0.173515 1431.86 345.599)" fill="#C4C4C4"/>
<ellipse rx="0.631083" ry="0.542675" transform="matrix(0.127397 0.991852 -0.984831 0.173515 1437.89 333.009)" fill="#C4C4C4"/>
<ellipse rx="0.631083" ry="0.542675" transform="matrix(0.127397 0.991852 -0.984831 0.173515 1411.21 285.564)" fill="#C4C4C4"/>
<ellipse rx="0.631083" ry="0.542675" transform="matrix(0.127397 0.991852 -0.984831 0.173515 1363.65 267.837)" fill="#C4C4C4"/>
<ellipse rx="0.631083" ry="0.542675" transform="matrix(0.127397 0.991852 -0.984831 0.173515 1439.39 302.025)" fill="#C4C4C4"/>
<ellipse rx="0.631083" ry="0.542675" transform="matrix(0.127397 0.991852 -0.984831 0.173515 1414.45 214.673)" fill="#C4C4C4"/>
<ellipse cx="1034.76" cy="155.68" rx="0.540457" ry="0.632984" fill="#C4C4C4"/>
<ellipse cx="989.31" cy="192.113" rx="0.540457" ry="0.632984" fill="#C4C4C4"/>
<ellipse cx="982.822" cy="179.461" rx="0.540457" ry="0.632984" fill="#C4C4C4"/>
<ellipse cx="289.523" cy="272.168" rx="1" ry="0.878906" fill="#C4C4C4"/>
<ellipse cx="978.501" cy="179.461" rx="0.540457" ry="0.632984" fill="#C4C4C4"/>
<ellipse cx="1217.47" cy="104.164" rx="0.540457" ry="0.632984" fill="#C4C4C4"/>
<ellipse cx="479.97" cy="168.891" rx="0.540457" ry="0.632984" fill="#C4C4C4"/>
<ellipse cx="230.638" cy="286.453" rx="0.540457" ry="0.632984" fill="#C4C4C4"/>
<ellipse cx="790.443" cy="644.426" rx="0.540457" ry="0.632984" fill="#C4C4C4"/>
<ellipse cx="486.642" cy="240.223" rx="0.540457" ry="0.632984" fill="#C4C4C4"/>
<ellipse cx="817.001" cy="831.996" rx="0.540457" ry="0.632984" fill="#C4C4C4"/>
<ellipse cx="778.759" cy="899.367" rx="0.540457" ry="0.632984" fill="#C4C4C4"/>
<ellipse cx="754.33" cy="861.059" rx="0.540457" ry="0.632984" fill="#C4C4C4"/>
<ellipse cx="779.822" cy="776.516" rx="0.540457" ry="0.632984" fill="#C4C4C4"/>
<ellipse cx="775.56" cy="667.797" rx="0.540457" ry="0.632984" fill="#C4C4C4"/>
<ellipse cx="764.951" cy="772.555" rx="0.540457" ry="0.632984" fill="#C4C4C4"/>
<ellipse cx="505.912" cy="139.774" rx="0.540457" ry="0.632984" fill="#C4C4C4"/>
<ellipse cx="435.654" cy="142.301" rx="0.540457" ry="0.632984" fill="#C4C4C4"/>
<ellipse cx="517.802" cy="143.567" rx="0.540457" ry="0.632984" fill="#C4C4C4"/>
<ellipse cx="1089.35" cy="324.774" rx="0.540457" ry="0.632984" fill="#C4C4C4"/>
<ellipse cx="1357.68" cy="893.746" rx="0.540457" ry="0.632984" fill="#C4C4C4"/>
<ellipse cx="516.72" cy="138.504" rx="0.540457" ry="0.632984" fill="#C4C4C4"/>
<ellipse rx="0.631083" ry="0.542675" transform="matrix(0.127397 0.991852 -0.984831 0.173515 917.616 325.037)" fill="#C4C4C4"/>
<ellipse rx="0.631083" ry="0.542675" transform="matrix(0.127397 0.991852 -0.984831 0.173515 881.616 292.517)" fill="#C4C4C4"/>
<ellipse rx="0.631083" ry="0.542675" transform="matrix(0.127397 0.991852 -0.984831 0.173515 893.616 460.388)" fill="#C4C4C4"/>
<ellipse rx="0.631083" ry="0.542675" transform="matrix(0.127397 0.991852 -0.984831 0.173515 929.616 286.365)" fill="#C4C4C4"/>
<ellipse rx="0.631083" ry="0.542675" transform="matrix(0.127397 0.991852 -0.984831 0.173515 825.616 296.033)" fill="#C4C4C4"/>
<ellipse rx="0.631083" ry="0.542675" transform="matrix(0.127397 0.991852 -0.984831 0.173515 961.616 437.537)" fill="#C4C4C4"/>
<ellipse rx="0.631083" ry="0.542675" transform="matrix(0.127397 0.991852 -0.984831 0.173515 906.616 351.404)" fill="#C4C4C4"/>
<ellipse rx="0.631083" ry="0.542675" transform="matrix(0.127397 0.991852 -0.984831 0.173515 873.616 315.369)" fill="#C4C4C4"/>
<ellipse rx="1.3208" ry="1.49339" transform="matrix(0.127397 0.991852 -0.984831 0.173515 936.768 400.593)" fill="#C4C4C4"/>
<ellipse rx="0.631083" ry="0.542675" transform="matrix(0.127397 0.991852 -0.984831 0.173515 937.616 497.302)" fill="#C4C4C4"/>
<ellipse rx="0.631083" ry="0.542675" transform="matrix(0.127397 0.991852 -0.984831 0.173515 818.616 267.908)" fill="#C4C4C4"/>
<ellipse rx="0.880534" ry="0.995596" transform="matrix(0.127397 0.991852 -0.984831 0.173515 948.202 393.038)" fill="#C4C4C4"/>
<ellipse rx="0.631083" ry="0.542675" transform="matrix(0.127397 0.991852 -0.984831 0.173515 902.616 397.986)" fill="#C4C4C4"/>
<ellipse cx="1106.65" cy="322.235" rx="0.540457" ry="0.632984" fill="#C4C4C4"/>
<ellipse cx="763.888" cy="784.445" rx="0.540457" ry="0.632984" fill="#C4C4C4"/>
<ellipse cx="508.948" cy="273.246" rx="0.540457" ry="0.632984" transform="rotate(-180 508.948 273.246)" fill="#C4C4C4"/>
<ellipse cx="503.635" cy="271.922" rx="0.540457" ry="0.632984" transform="rotate(-180 503.635 271.922)" fill="#C4C4C4"/>
<ellipse cx="316.999" cy="402.801" rx="0.540457" ry="0.632984" transform="rotate(-180 316.999 402.801)" fill="#C4C4C4"/>
<ellipse cx="325.155" cy="352.808" rx="0.540457" ry="0.632984" transform="rotate(-180 325.155 352.808)" fill="#C4C4C4"/>
<ellipse cx="303.292" cy="326.383" rx="0.540457" ry="0.632984" transform="rotate(-180 303.292 326.383)" fill="#C4C4C4"/>
<ellipse cx="307.174" cy="303.906" rx="0.540457" ry="0.632984" transform="rotate(-180 307.174 303.906)" fill="#C4C4C4"/>
<ellipse cx="365.733" cy="332.914" rx="0.540457" ry="0.632984" transform="rotate(-180 365.733 332.914)" fill="#C4C4C4"/>
<ellipse cx="339.381" cy="308.551" rx="0.540457" ry="0.632984" transform="rotate(-180 339.381 308.551)" fill="#C4C4C4"/>
<ellipse cx="329.577" cy="223.637" rx="0.540457" ry="0.632984" transform="rotate(-180 329.577 223.637)" fill="#C4C4C4"/>
<ellipse cx="292.566" cy="268.748" rx="1.5" ry="1.31836" transform="rotate(-180 292.566 268.748)" fill="#C4C4C4"/>
<ellipse cx="812.749" cy="711.789" rx="0.540457" ry="0.632984" transform="rotate(-180 812.749 711.789)" fill="#C4C4C4"/>
<ellipse cx="446.276" cy="274.562" rx="0.540457" ry="0.632984" transform="rotate(-180 446.276 274.562)" fill="#C4C4C4"/>
<ellipse cx="623.67" cy="262.676" rx="0.540457" ry="0.632984" transform="rotate(-180 623.67 262.676)" fill="#C4C4C4"/>
<ellipse cx="618.362" cy="267.953" rx="0.540457" ry="0.632984" transform="rotate(-180 618.362 267.953)" fill="#C4C4C4"/>
<ellipse cx="459.655" cy="382.133" rx="0.540457" ry="0.632984" transform="rotate(-180 459.655 382.133)" fill="#C4C4C4"/>
<ellipse cx="557.811" cy="294.379" rx="0.540457" ry="0.632984" transform="rotate(-180 557.811 294.379)" fill="#C4C4C4"/>
<ellipse cx="808.503" cy="723.68" rx="0.540457" ry="0.632984" transform="rotate(-180 808.503 723.68)" fill="#C4C4C4"/>
<ellipse cx="477.684" cy="333.762" rx="1" ry="0.878906" transform="rotate(-180 477.684 333.762)" fill="#C4C4C4"/>
<ellipse cx="1410.53" cy="825.394" rx="0.540457" ry="0.632984" transform="rotate(-180 1410.53 825.394)" fill="#C4C4C4"/>
<ellipse cx="534.249" cy="400.109" rx="0.540457" ry="0.632984" transform="rotate(-180 534.249 400.109)" fill="#C4C4C4"/>
<ellipse cx="601.362" cy="300.984" rx="0.540457" ry="0.632984" transform="rotate(-180 601.362 300.984)" fill="#C4C4C4"/>
<ellipse cx="504.928" cy="357.64" rx="0.540457" ry="0.632984" transform="rotate(-180 504.928 357.64)" fill="#C4C4C4"/>
<ellipse cx="511.792" cy="367.254" rx="0.540457" ry="0.632984" transform="rotate(-180 511.792 367.254)" fill="#C4C4C4"/>
<ellipse cx="691.651" cy="327.402" rx="0.540457" ry="0.632984" transform="rotate(-180 691.651 327.402)" fill="#C4C4C4"/>
<ellipse cx="1411.22" cy="830.547" rx="0.540457" ry="0.632984" transform="rotate(-180 1411.22 830.547)" fill="#C4C4C4"/>
<ellipse cx="545.014" cy="401.23" rx="0.540457" ry="0.632984" transform="rotate(-180 545.014 401.23)" fill="#C4C4C4"/>
<ellipse cx="809.561" cy="784.437" rx="0.540457" ry="0.632984" transform="rotate(-180 809.561 784.437)" fill="#C4C4C4"/>
<ellipse cx="801.065" cy="771.234" rx="0.540457" ry="0.632984" transform="rotate(-180 801.065 771.234)" fill="#C4C4C4"/>
<ellipse cx="418.667" cy="321.926" rx="0.540457" ry="0.632984" transform="rotate(-180 418.667 321.926)" fill="#C4C4C4"/>
<ellipse cx="608.799" cy="372.312" rx="0.540457" ry="0.632984" transform="rotate(-180 608.799 372.312)" fill="#C4C4C4"/>
<ellipse cx="455.155" cy="384.211" rx="0.540457" ry="0.632984" transform="rotate(-180 455.155 384.211)" fill="#C4C4C4"/>
<ellipse cx="439.901" cy="335.324" rx="0.540457" ry="0.632984" transform="rotate(-180 439.901 335.324)" fill="#C4C4C4"/>
<ellipse cx="482.436" cy="367.988" rx="0.540457" ry="0.632984" transform="rotate(-180 482.436 367.988)" fill="#C4C4C4"/>
<ellipse cx="538.789" cy="391.439" rx="1.5" ry="1.31836" transform="rotate(-180 538.789 391.439)" fill="#C4C4C4"/>
<ellipse cx="447.311" cy="373.215" rx="0.540457" ry="0.632984" transform="rotate(-180 447.311 373.215)" fill="#C4C4C4"/>
<ellipse cx="534.667" cy="351.855" rx="0.540457" ry="0.632984" transform="rotate(-180 534.667 351.855)" fill="#C4C4C4"/>
<ellipse cx="573.831" cy="364.847" rx="0.540457" ry="0.632984" transform="rotate(-180 573.831 364.847)" fill="#C4C4C4"/>
<ellipse cx="286.085" cy="267.387" rx="0.540457" ry="0.632984" transform="rotate(-180 286.085 267.387)" fill="#C4C4C4"/>
<ellipse cx="764.747" cy="498.168" rx="0.540457" ry="0.632984" fill="#C4C4C4"/>
<ellipse cx="904.185" cy="588.043" rx="0.540457" ry="0.632984" fill="#C4C4C4"/>
<ellipse cx="927.966" cy="612.098" rx="0.540457" ry="0.632984" fill="#C4C4C4"/>
<ellipse cx="925.802" cy="634.883" rx="0.540457" ry="0.632984" fill="#C4C4C4"/>
<ellipse cx="866.234" cy="612.783" rx="1.5" ry="1.31836" fill="#C4C4C4"/>
<ellipse cx="893.376" cy="633.617" rx="0.540457" ry="0.632984" fill="#C4C4C4"/>
<ellipse cx="717.15" cy="271.922" rx="0.540457" ry="0.632984" fill="#C4C4C4"/>
<ellipse cx="791.505" cy="500.442" rx="0.540457" ry="0.632984" fill="#C4C4C4"/>
<ellipse cx="768.138" cy="250.789" rx="0.540457" ry="0.632984" fill="#C4C4C4"/>
<ellipse cx="781.947" cy="495.16" rx="0.540457" ry="0.632984" fill="#C4C4C4"/>
<ellipse cx="769.201" cy="496.481" rx="0.540457" ry="0.632984" fill="#C4C4C4"/>
<ellipse cx="840.372" cy="544.031" rx="0.540457" ry="0.632984" fill="#C4C4C4"/>
<ellipse cx="686.345" cy="283.813" rx="0.540457" ry="0.632984" fill="#C4C4C4"/>
<ellipse rx="0.580802" ry="0.59618" transform="matrix(0.710718 0.703477 -0.585152 0.810923 620.275 163.599)" fill="#C4C4C4"/>
<ellipse rx="0.580802" ry="0.59618" transform="matrix(0.710718 0.703477 -0.585152 0.810923 656.138 160.978)" fill="#C4C4C4"/>
<ellipse rx="0.934228" ry="0.915282" transform="matrix(0.710718 0.703477 -0.585152 0.810923 601.144 110.302)" fill="#C4C4C4"/>
<ellipse rx="0.580802" ry="0.59618" transform="matrix(0.710718 0.703477 -0.585152 0.810923 716.08 205.384)" fill="#C4C4C4"/>
<ellipse rx="0.580802" ry="0.59618" transform="matrix(0.710718 0.703477 -0.585152 0.810923 732.763 71.2045)" fill="#C4C4C4"/>
<ellipse rx="0.580802" ry="0.59618" transform="matrix(0.710718 0.703477 -0.585152 0.810923 663.126 172.861)" fill="#C4C4C4"/>
<ellipse rx="0.934228" ry="0.915282" transform="matrix(0.710718 0.703477 -0.585152 0.810923 665.156 168.692)" fill="#C4C4C4"/>
<ellipse rx="0.934228" ry="0.915282" transform="matrix(0.710718 0.703477 -0.585152 0.810923 597.66 115.138)" fill="#C4C4C4"/>
<ellipse rx="0.580802" ry="0.59618" transform="matrix(0.710718 0.703477 -0.585152 0.810923 617.404 134.24)" fill="#C4C4C4"/>
<ellipse cx="1100.91" cy="122.172" rx="0.540457" ry="0.632984" fill="#C4C4C4"/>
<ellipse cx="1062" cy="146.223" rx="0.540457" ry="0.632984" fill="#C4C4C4"/>
<ellipse cx="1158.2" cy="12.0314" rx="0.540457" ry="0.632984" fill="#C4C4C4"/>
<ellipse cx="1065.25" cy="47.4767" rx="0.540457" ry="0.632984" fill="#C4C4C4"/>
<ellipse cx="813.392" cy="628.555" rx="0.540457" ry="0.632984" fill="#C4C4C4"/>
<ellipse cx="855.244" cy="534.789" rx="0.540457" ry="0.632984" fill="#C4C4C4"/>
<ellipse cx="141.412" cy="390.809" rx="0.540457" ry="0.632984" fill="#C4C4C4"/>
<ellipse cx="182.134" cy="357.637" rx="0.540457" ry="0.632984" fill="#C4C4C4"/>
<ellipse cx="76.2045" cy="344.981" rx="0.540457" ry="0.632984" fill="#C4C4C4"/>
<ellipse cx="135.662" cy="333.586" rx="0.540457" ry="0.632984" fill="#C4C4C4"/>
<ellipse cx="1088.73" cy="173.098" rx="1" ry="0.878906" fill="#C4C4C4"/>
<ellipse cx="114.496" cy="411.055" rx="1" ry="0.878906" fill="#C4C4C4"/>
<ellipse cx="8.10686" cy="398.153" rx="0.540457" ry="0.632984" fill="#C4C4C4"/>
<ellipse cx="67.56" cy="386.758" rx="0.540457" ry="0.632984" fill="#C4C4C4"/>
<ellipse cx="996.064" cy="72.797" rx="0.540457" ry="0.632984" fill="#C4C4C4"/>
<ellipse cx="1049.02" cy="13.301" rx="0.540457" ry="0.632984" fill="#C4C4C4"/>
<ellipse cx="943.095" cy="0.632984" rx="0.540457" ry="0.632984" fill="#C4C4C4"/>
<ellipse cx="704.216" cy="285.477" rx="0.540457" ry="0.632984" fill="#C4C4C4"/>
<ellipse cx="598.29" cy="272.817" rx="0.540457" ry="0.632984" fill="#C4C4C4"/>
<ellipse cx="657.736" cy="261.426" rx="0.540457" ry="0.632984" fill="#C4C4C4"/>
<ellipse cx="52.5756" cy="654.414" rx="0.540457" ry="0.632984" fill="#C4C4C4"/>
<ellipse cx="124.807" cy="629.312" rx="0.540457" ry="0.632984" transform="rotate(-180 124.807 629.312)" fill="#C4C4C4"/>
<ellipse cx="119.495" cy="634.597" rx="0.540457" ry="0.632984" transform="rotate(-180 119.495 634.597)" fill="#C4C4C4"/>
<ellipse cx="58.9439" cy="661.019" rx="0.540457" ry="0.632984" transform="rotate(-180 58.9439 661.019)" fill="#C4C4C4"/>
<ellipse cx="102.495" cy="667.629" rx="0.540457" ry="0.632984" transform="rotate(-180 102.495 667.629)" fill="#C4C4C4"/>
<ellipse cx="130.116" cy="627.996" rx="0.540457" ry="0.632984" transform="rotate(-180 130.116 627.996)" fill="#C4C4C4"/>
<ellipse cx="205.537" cy="601.582" rx="0.540457" ry="0.632984" fill="#C4C4C4"/>
<ellipse cx="99.4272" cy="639.457" rx="0.540457" ry="0.632984" fill="#C4C4C4"/>
<ellipse cx="158.872" cy="628.067" rx="0.540457" ry="0.632984" fill="#C4C4C4"/>
<ellipse cx="1122.53" cy="722.242" rx="0.540457" ry="0.632984" fill="#C4C4C4"/>
<ellipse cx="845.681" cy="654.992" rx="0.540457" ry="0.632984" fill="#C4C4C4"/>
<ellipse cx="830.682" cy="114.574" rx="0.540457" ry="0.632984" transform="rotate(-180 830.682 114.574)" fill="#C4C4C4"/>
<ellipse cx="894.775" cy="128.977" rx="0.540457" ry="0.632984" fill="#C4C4C4"/>
<ellipse cx="894.775" cy="135.297" rx="0.540457" ry="0.632984" fill="#C4C4C4"/>
<ellipse cx="905.583" cy="199.871" rx="0.540457" ry="0.632984" fill="#C4C4C4"/>
<ellipse cx="892.54" cy="340.77" rx="0.540457" ry="0.632984" fill="#C4C4C4"/>
<ellipse cx="840.372" cy="598.192" rx="0.540457" ry="0.632984" fill="#C4C4C4"/>
<ellipse cx="25.4076" cy="209.516" rx="0.540457" ry="0.632984" fill="#C4C4C4"/>
<ellipse cx="36.2162" cy="209.516" rx="0.540457" ry="0.632984" fill="#C4C4C4"/>
<ellipse cx="8.10686" cy="218.383" rx="0.540457" ry="0.632984" fill="#C4C4C4"/>
<ellipse cx="40.5405" cy="217.121" rx="0.540457" ry="0.632984" fill="#C4C4C4"/>
<ellipse cx="30.81" cy="241.172" rx="0.540457" ry="0.632984" fill="#C4C4C4"/>
<ellipse cx="16.7553" cy="224.711" rx="0.540457" ry="0.632984" fill="#C4C4C4"/>
<ellipse cx="0.540457" cy="179.137" rx="0.540457" ry="0.632984" fill="#C4C4C4"/>
<ellipse cx="65.3959" cy="200.656" rx="0.540457" ry="0.632984" fill="#C4C4C4"/>
<ellipse cx="94.5834" cy="253.832" rx="0.540457" ry="0.632984" fill="#C4C4C4"/>
<ellipse cx="38.3764" cy="222.184" rx="0.540457" ry="0.632984" fill="#C4C4C4"/>
<ellipse cx="43.7787" cy="275.356" rx="0.540457" ry="0.632984" fill="#C4C4C4"/>
<ellipse cx="3.78655" cy="266.488" rx="0.540457" ry="0.632984" fill="#C4C4C4"/>
<ellipse rx="0.591796" ry="0.585269" transform="matrix(0.622498 0.782621 -0.675673 0.737201 84.4104 100.356)" fill="#C4C4C4"/>
<ellipse rx="0.591796" ry="0.585269" transform="matrix(0.622498 0.782621 -0.675673 0.737201 91.7776 109.625)" fill="#C4C4C4"/>
<ellipse rx="0.591796" ry="0.585269" transform="matrix(0.622498 0.782621 -0.675673 0.737201 93.2464 111.477)" fill="#C4C4C4"/>
<ellipse rx="0.591796" ry="0.585269" transform="matrix(0.622498 0.782621 -0.675673 0.737201 114.309 123.102)" fill="#C4C4C4"/>
<ellipse rx="0.591796" ry="0.585269" transform="matrix(0.622498 0.782621 -0.675673 0.737201 68.3167 126.566)" fill="#C4C4C4"/>
<ellipse rx="0.591796" ry="0.585269" transform="matrix(0.622498 0.782621 -0.675673 0.737201 69.0237 103.305)" fill="#C4C4C4"/>
<ellipse rx="0.591796" ry="0.585269" transform="matrix(0.622498 0.782621 -0.675673 0.737201 86.4417 58.3477)" fill="#C4C4C4"/>
<ellipse rx="0.591796" ry="0.585269" transform="matrix(0.622498 0.782621 -0.675673 0.737201 117.203 128.594)" fill="#C4C4C4"/>
<ellipse rx="0.591796" ry="0.585269" transform="matrix(0.622498 0.782621 -0.675673 0.737201 103.879 189.852)" fill="#C4C4C4"/>
<ellipse rx="0.591796" ry="0.585269" transform="matrix(0.622498 0.782621 -0.675673 0.737201 85.3401 120.106)" fill="#C4C4C4"/>
<ellipse rx="0.591796" ry="0.585269" transform="matrix(0.622498 0.782621 -0.675673 0.737201 55.805 160.981)" fill="#C4C4C4"/>
<ellipse rx="0.591796" ry="0.585269" transform="matrix(0.622498 0.782621 -0.675673 0.737201 34.0784 120.66)" fill="#C4C4C4"/>
<ellipse cx="489.111" cy="123.438" rx="0.540457" ry="0.632984" fill="#C4C4C4"/>
<ellipse cx="583.154" cy="160.149" rx="0.540457" ry="0.632984" fill="#C4C4C4"/>
<ellipse cx="575.587" cy="151.285" rx="0.540457" ry="0.632984" fill="#C4C4C4"/>
<ellipse cx="539.919" cy="120.903" rx="0.540457" ry="0.632984" fill="#C4C4C4"/>
<ellipse cx="518.302" cy="112.043" rx="0.540457" ry="0.632984" fill="#C4C4C4"/>
<ellipse cx="550.728" cy="110.774" rx="0.540457" ry="0.632984" fill="#C4C4C4"/>
<ellipse cx="540.997" cy="134.832" rx="0.540457" ry="0.632984" fill="#C4C4C4"/>
<ellipse cx="526.951" cy="118.367" rx="0.540457" ry="0.632984" fill="#C4C4C4"/>
<ellipse cx="575.587" cy="94.3166" rx="0.540457" ry="0.632984" fill="#C4C4C4"/>
<ellipse cx="604.775" cy="147.488" rx="0.540457" ry="0.632984" fill="#C4C4C4"/>
<ellipse cx="548.568" cy="115.84" rx="0.540457" ry="0.632984" fill="#C4C4C4"/>
<ellipse cx="553.97" cy="169.008" rx="0.540457" ry="0.632984" fill="#C4C4C4"/>
<ellipse cx="514.438" cy="160.395" rx="1" ry="0.878906" fill="#C4C4C4"/>
<ellipse cx="1399.24" cy="742.496" rx="0.540457" ry="0.632984" fill="#C4C4C4"/>
<ellipse cx="1323.58" cy="777.942" rx="0.540457" ry="0.632984" fill="#C4C4C4"/>
<ellipse cx="1338.72" cy="709.578" rx="0.540457" ry="0.632984" fill="#C4C4C4"/>
<ellipse cx="1304.13" cy="731.098" rx="0.540457" ry="0.632984" fill="#C4C4C4"/>
<ellipse cx="680.158" cy="473.621" rx="0.540457" ry="0.632984" fill="#C4C4C4"/>
<ellipse cx="843.38" cy="587.559" rx="0.540457" ry="0.632984" fill="#C4C4C4"/>
<ellipse cx="683.404" cy="548.313" rx="0.540457" ry="0.632984" fill="#C4C4C4"/>
<ellipse cx="682.318" cy="476.16" rx="0.540457" ry="0.632984" fill="#C4C4C4"/>
<ellipse cx="638.001" cy="458.434" rx="0.540457" ry="0.632984" fill="#C4C4C4"/>
<ellipse cx="567.747" cy="490.078" rx="0.540457" ry="0.632984" fill="#C4C4C4"/>
<ellipse cx="728.798" cy="604.016" rx="0.540457" ry="0.632984" fill="#C4C4C4"/>
<ellipse cx="687.728" cy="545.781" rx="0.540457" ry="0.632984" fill="#C4C4C4"/>
<ellipse cx="586.119" cy="464.758" rx="0.540457" ry="0.632984" fill="#C4C4C4"/>
<ellipse cx="696.372" cy="555.906" rx="0.540457" ry="0.632984" fill="#C4C4C4"/>
<ellipse cx="287.849" cy="691.473" rx="0.540457" ry="0.632984" fill="#C4C4C4"/>
<ellipse cx="44.392" cy="862.36" rx="0.540457" ry="0.632984" fill="#C4C4C4"/>
<ellipse cx="198.064" cy="800.496" rx="0.540457" ry="0.632984" fill="#C4C4C4"/>
<ellipse cx="176.447" cy="818.223" rx="0.540457" ry="0.632984" fill="#C4C4C4"/>
<ellipse cx="136.455" cy="809.356" rx="0.540457" ry="0.632984" fill="#C4C4C4"/>
<ellipse cx="440.267" cy="748.434" rx="0.540457" ry="0.632984" fill="#C4C4C4"/>
<ellipse cx="494.227" cy="659.471" rx="1.5" ry="1.31836" fill="#C4C4C4"/>
<ellipse cx="526.736" cy="776.289" rx="0.540457" ry="0.632984" fill="#C4C4C4"/>
<ellipse cx="505.119" cy="794.02" rx="0.540457" ry="0.632984" fill="#C4C4C4"/>
<ellipse cx="715.133" cy="303.895" rx="1" ry="0.878906" transform="rotate(-180 715.133 303.895)" fill="#C4C4C4"/>
<ellipse cx="1360.33" cy="766.547" rx="0.540457" ry="0.632984" fill="#C4C4C4"/>
<ellipse cx="1152.67" cy="143.789" rx="0.540457" ry="0.632984" fill="#C4C4C4"/>
<ellipse cx="1159.04" cy="140.602" rx="0.540457" ry="0.632984" fill="#C4C4C4"/>
<ellipse cx="1156.92" cy="139.828" rx="0.540457" ry="0.632984" fill="#C4C4C4"/>
<ellipse cx="1182.42" cy="168.887" rx="0.540457" ry="0.632984" fill="#C4C4C4"/>
<ellipse cx="1186.66" cy="171.528" rx="0.540457" ry="0.632984" fill="#C4C4C4"/>
<ellipse cx="1172.98" cy="141.287" rx="1.5" ry="1.31836" fill="#C4C4C4"/>
<ellipse cx="1165.53" cy="127.938" rx="0.540457" ry="0.632984" fill="#C4C4C4"/>
<ellipse cx="1124.69" cy="146.223" rx="0.540457" ry="0.632984" fill="#C4C4C4"/>
<ellipse cx="1094.52" cy="614.141" rx="0.540457" ry="0.632984" fill="#C4C4C4"/>
<ellipse cx="1100.89" cy="610.953" rx="0.540457" ry="0.632984" fill="#C4C4C4"/>
<ellipse cx="1098.77" cy="610.184" rx="0.540457" ry="0.632984" fill="#C4C4C4"/>
<ellipse cx="1124.26" cy="639.242" rx="0.540457" ry="0.632984" fill="#C4C4C4"/>
<ellipse cx="1128.51" cy="641.879" rx="0.540457" ry="0.632984" fill="#C4C4C4"/>
<ellipse cx="1114.32" cy="611.199" rx="1" ry="0.878906" fill="#C4C4C4"/>
<ellipse cx="1107.38" cy="598.289" rx="0.540457" ry="0.632984" fill="#C4C4C4"/>
<ellipse cx="1066.54" cy="616.574" rx="0.540457" ry="0.632984" fill="#C4C4C4"/>
<ellipse cx="1103.52" cy="470" rx="0.540457" ry="0.632984" fill="#C4C4C4"/>
<ellipse cx="1109.89" cy="466.813" rx="0.540457" ry="0.632984" fill="#C4C4C4"/>
<ellipse cx="1107.77" cy="466.043" rx="0.540457" ry="0.632984" fill="#C4C4C4"/>
<ellipse cx="1133.26" cy="495.102" rx="0.540457" ry="0.632984" fill="#C4C4C4"/>
<ellipse cx="1137.51" cy="497.738" rx="0.540457" ry="0.632984" fill="#C4C4C4"/>
<ellipse cx="1122.86" cy="466.813" rx="0.540457" ry="0.632984" fill="#C4C4C4"/>
<ellipse cx="1116.38" cy="454.149" rx="0.540457" ry="0.632984" fill="#C4C4C4"/>
<ellipse cx="1075.54" cy="472.434" rx="0.540457" ry="0.632984" fill="#C4C4C4"/>
<ellipse cx="877.165" cy="685.524" rx="0.540457" ry="0.632984" fill="#C4C4C4"/>
<ellipse cx="882.568" cy="690.586" rx="0.540457" ry="0.632984" fill="#C4C4C4"/>
<ellipse cx="912.833" cy="680.457" rx="0.540457" ry="0.632984" fill="#C4C4C4"/>
<ellipse cx="897.701" cy="701.977" rx="0.540457" ry="0.632984" fill="#C4C4C4"/>
<ellipse cx="893.376" cy="690.586" rx="0.540457" ry="0.632984" fill="#C4C4C4"/>
<ellipse cx="909.591" cy="717.176" rx="0.540457" ry="0.632984" fill="#C4C4C4"/>
<ellipse cx="942.017" cy="667.793" rx="0.540457" ry="0.632984" fill="#C4C4C4"/>
<ellipse cx="949.583" cy="669.063" rx="0.540457" ry="0.632984" fill="#C4C4C4"/>
<ellipse cx="382.54" cy="495.61" rx="0.540457" ry="0.632984" fill="#C4C4C4"/>
<ellipse cx="388.402" cy="500.918" rx="1" ry="0.878906" fill="#C4C4C4"/>
<ellipse cx="418.208" cy="490.543" rx="0.540457" ry="0.632984" fill="#C4C4C4"/>
<ellipse cx="403.076" cy="512.063" rx="0.540457" ry="0.632984" fill="#C4C4C4"/>
<ellipse cx="398.751" cy="500.672" rx="0.540457" ry="0.632984" fill="#C4C4C4"/>
<ellipse cx="414.966" cy="527.262" rx="0.540457" ry="0.632984" fill="#C4C4C4"/>
<ellipse cx="447.392" cy="477.879" rx="0.540457" ry="0.632984" fill="#C4C4C4"/>
<ellipse cx="454.958" cy="479.149" rx="0.540457" ry="0.632984" fill="#C4C4C4"/>
<ellipse cx="758.54" cy="354.106" rx="0.540457" ry="0.632984" fill="#C4C4C4"/>
<ellipse cx="763.943" cy="359.168" rx="0.540457" ry="0.632984" fill="#C4C4C4"/>
<ellipse cx="794.208" cy="349.039" rx="0.540457" ry="0.632984" fill="#C4C4C4"/>
<ellipse cx="779.076" cy="370.559" rx="0.540457" ry="0.632984" fill="#C4C4C4"/>
<ellipse cx="774.751" cy="359.168" rx="0.540457" ry="0.632984" fill="#C4C4C4"/>
<ellipse cx="790.966" cy="385.758" rx="0.540457" ry="0.632984" fill="#C4C4C4"/>
<ellipse cx="823.392" cy="336.375" rx="0.540457" ry="0.632984" fill="#C4C4C4"/>
<ellipse cx="830.958" cy="337.645" rx="0.540457" ry="0.632984" fill="#C4C4C4"/>
<ellipse cx="767.99" cy="572.848" rx="0.540457" ry="0.632984" fill="#C4C4C4"/>
<ellipse cx="794.697" cy="563.848" rx="0.540457" ry="0.632984" fill="#C4C4C4"/>
<ellipse cx="772.314" cy="570.324" rx="0.540457" ry="0.632984" fill="#C4C4C4"/>
<ellipse cx="787.259" cy="561.203" rx="0.540457" ry="0.632984" fill="#C4C4C4"/>
<ellipse cx="780.966" cy="580.445" rx="0.540457" ry="0.632984" fill="#C4C4C4"/>
<ellipse cx="819.595" cy="563.508" rx="0.540457" ry="0.632984" fill="#C4C4C4"/>
<ellipse cx="780.685" cy="587.559" rx="0.540457" ry="0.632984" fill="#C4C4C4"/>
<ellipse cx="679.54" cy="409.543" rx="0.540457" ry="0.632984" fill="#C4C4C4"/>
<ellipse cx="706.247" cy="400.543" rx="0.540457" ry="0.632984" fill="#C4C4C4"/>
<ellipse cx="683.865" cy="407.02" rx="0.540457" ry="0.632984" fill="#C4C4C4"/>
<ellipse cx="698.81" cy="397.899" rx="0.540457" ry="0.632984" fill="#C4C4C4"/>
<ellipse cx="692.517" cy="417.141" rx="0.540457" ry="0.632984" fill="#C4C4C4"/>
<ellipse cx="731.146" cy="400.203" rx="0.540457" ry="0.632984" fill="#C4C4C4"/>
<ellipse cx="692.236" cy="424.25" rx="0.540457" ry="0.632984" fill="#C4C4C4"/>
<ellipse cx="95.5405" cy="565.871" rx="0.540457" ry="0.632984" fill="#C4C4C4"/>
<ellipse cx="167.564" cy="540.525" rx="0.748965" ry="0.87719" transform="rotate(-180 167.564 540.525)" fill="#C4C4C4"/>
<ellipse cx="162.46" cy="546.055" rx="0.540457" ry="0.632984" transform="rotate(-180 162.46 546.055)" fill="#C4C4C4"/>
<ellipse cx="101.909" cy="572.476" rx="0.540457" ry="0.632984" transform="rotate(-180 101.909 572.476)" fill="#C4C4C4"/>
<ellipse cx="145.46" cy="579.082" rx="0.540457" ry="0.632984" transform="rotate(-180 145.46 579.082)" fill="#C4C4C4"/>
<ellipse cx="173.081" cy="539.453" rx="0.540457" ry="0.632984" transform="rotate(-180 173.081 539.453)" fill="#C4C4C4"/>
<ellipse cx="248.501" cy="513.035" rx="0.540457" ry="0.632984" fill="#C4C4C4"/>
<ellipse cx="142.392" cy="550.914" rx="0.540457" ry="0.632984" fill="#C4C4C4"/>
<ellipse cx="201.837" cy="539.524" rx="0.540457" ry="0.632984" fill="#C4C4C4"/>
<ellipse cx="370.54" cy="623.778" rx="0.540457" ry="0.632984" fill="#C4C4C4"/>
<ellipse cx="656.54" cy="705.516" rx="0.540457" ry="0.632984" fill="#C4C4C4"/>
<ellipse cx="592.607" cy="520.465" rx="0.540457" ry="0.632984" fill="#C4C4C4"/>
<ellipse cx="603.415" cy="520.465" rx="0.540457" ry="0.632984" fill="#C4C4C4"/>
<ellipse cx="605.576" cy="520.465" rx="0.540457" ry="0.632984" fill="#C4C4C4"/>
<ellipse cx="607.736" cy="538.192" rx="0.540457" ry="0.632984" fill="#C4C4C4"/>
<ellipse cx="546.126" cy="540.715" rx="0.540457" ry="0.632984" fill="#C4C4C4"/>
<ellipse cx="632.595" cy="568.567" rx="0.540457" ry="0.632984" fill="#C4C4C4"/>
<ellipse cx="596.927" cy="538.192" rx="0.540457" ry="0.632984" fill="#C4C4C4"/>
<ellipse cx="607.736" cy="528.059" rx="0.540457" ry="0.632984" fill="#C4C4C4"/>
<ellipse cx="598.013" cy="552.11" rx="0.540457" ry="0.632984" fill="#C4C4C4"/>
<ellipse cx="605.576" cy="533.121" rx="0.540457" ry="0.632984" fill="#C4C4C4"/>
<ellipse cx="570.986" cy="577.43" rx="0.540457" ry="0.632984" fill="#C4C4C4"/>
<ellipse cx="1249.02" cy="230.028" rx="0.540457" ry="0.632984" fill="#C4C4C4"/>
<ellipse cx="1259.83" cy="230.028" rx="0.540457" ry="0.632984" fill="#C4C4C4"/>
<ellipse cx="1261.99" cy="230.028" rx="0.540457" ry="0.632984" fill="#C4C4C4"/>
<ellipse cx="1264.15" cy="247.754" rx="0.540457" ry="0.632984" fill="#C4C4C4"/>
<ellipse cx="1202.54" cy="250.278" rx="0.540457" ry="0.632984" fill="#C4C4C4"/>
<ellipse cx="1289.01" cy="278.129" rx="0.540457" ry="0.632984" fill="#C4C4C4"/>
<ellipse cx="1254.3" cy="248.439" rx="1.5" ry="1.31836" fill="#C4C4C4"/>
<ellipse cx="1264.61" cy="237.867" rx="1" ry="0.878906" fill="#C4C4C4"/>
<ellipse cx="1254.43" cy="261.672" rx="0.540457" ry="0.632984" fill="#C4C4C4"/>
<ellipse cx="1261.99" cy="242.688" rx="0.540457" ry="0.632984" fill="#C4C4C4"/>
<ellipse cx="1227.4" cy="286.992" rx="0.540457" ry="0.632984" fill="#C4C4C4"/>
</svg>
